<?xml version="1.0" standalone="no"?>
<!DOCTYPE svg PUBLIC "-//W3C//DTD SVG 1.1//EN" "http://www.w3.org/Graphics/SVG/1.1/DTD/svg11.dtd" >
<!--
2013-9-30: Created.
-->
<svg>
<metadata>
Created by iconfont
</metadata>
<defs>

<font id="m-iconfont" horiz-adv-x="1024" >
  <font-face
    font-family="m-iconfont"
    font-weight="500"
    font-stretch="normal"
    units-per-em="1024"
    ascent="896"
    descent="-128"
  />
    <missing-glyph />
    
    <glyph glyph-name="x" unicode="x" horiz-adv-x="1001"
d="M281 543q-27 -1 -53 -1h-83q-18 0 -36.5 -6t-32.5 -18.5t-23 -32t-9 -45.5v-76h912v41q0 16 -0.5 30t-0.5 18q0 13 -5 29t-17 29.5t-31.5 22.5t-49.5 9h-133v-97h-438v97zM955 310v-52q0 -23 0.5 -52t0.5 -58t-10.5 -47.5t-26 -30t-33 -16t-31.5 -4.5q-14 -1 -29.5 -0.5
t-29.5 0.5h-32l-45 128h-439l-44 -128h-29h-34q-20 0 -45 1q-25 0 -41 9.5t-25.5 23t-13.5 29.5t-4 30v167h911zM163 247q-12 0 -21 -8.5t-9 -21.5t9 -21.5t21 -8.5q13 0 22 8.5t9 21.5t-9 21.5t-22 8.5zM316 123q-8 -26 -14 -48q-5 -19 -10.5 -37t-7.5 -25t-3 -15t1 -14.5
t9.5 -10.5t21.5 -4h37h67h81h80h64h36q23 0 34 12t2 38q-5 13 -9.5 30.5t-9.5 34.5q-5 19 -11 39h-368zM336 498v228q0 11 2.5 23t10 21.5t20.5 15.5t34 6h188q31 0 51.5 -14.5t20.5 -52.5v-227h-327z" />
    

    
    <glyph glyph-name="07jiantouxiangxiafill" unicode="&#58901;" d="M512-64c247.039 0 448 200.961 448 448S759.039 832 512 832 64 631.039 64 384 264.961-64 512-64zM501.149 227.135c-0.127 0.033-0.256 0.193-0.384 0.256-3.616 1.536-7.072 3.649-10.048 6.592-0.031 0.033-0.031 0.065-0.064 0.096s-0.064 0.031-0.096 0.064L331.199 393.055c-12.511 12.48-12.576 32.735-0.064 45.248 12.48 12.511 32.735 12.544 45.248 0.064l136.672-136.288 135.904 137.408c12.447 12.576 32.672 12.673 45.248 0.256 6.336-6.239 9.504-14.496 9.504-22.751 0-8.128-3.103-16.258-9.248-22.497L535.968 234.24C526.592 224.768 512.767 222.399 501.149 227.135z"  horiz-adv-x="1024" />

    
    <glyph glyph-name="gouwu1" unicode="&#59092;" d="M754.974 131.815c56.404 0 102.345-45.798 102.346-102.228s-45.932-102.266-102.346-102.266c-56.396 0-102.317 45.859-102.317 102.266 0.001 56.401 45.936 102.228 102.317 102.228z m-442.325 0c56.411 0 102.383-45.78 102.384-102.228 0.001-56.441-45.969-102.266-102.384-102.266-56.401 0-102.337 45.849-102.337 102.266 0.001 56.417 45.944 102.228 102.337 102.228zM185.267 702.906h754.391c27.361 0 53.106-13.322 68.908-35.657 15.73-22.234 19.708-51.08 10.682-76.76a2.657 2.657 0 0 0-0.042-0.126l-117.7-330.824c-16.712-46.975-61.46-78.477-111.308-78.477H330.681c-56.203 0-104.952 40.012-115.852 95.155l-77.877 393.962-25.38 116.386H27.124C12.162 786.565 0 798.618 0 813.601 0 828.6 12.137 840.678 27.124 840.678l106.27 0.001c1.006 0 1.618-0.4 2.388-0.455 1.885-0.172 3.705-0.523 5.51-1.094 1.604-0.508 3.138-1.071 4.549-1.855 1.563-0.801 2.942-1.775 4.317-2.86 1.367-1.079 2.602-2.224 3.776-3.599a26.84 26.84 0 0 0 2.734-4.118c0.906-1.603 1.681-3.257 2.259-5.057 0.219-0.738 0.747-1.254 0.966-2.263l25.374-116.472z m569.707-721.454c26.543 0 48.177 21.564 48.177 48.119 0 26.547-21.655 48.069-48.177 48.069-26.526 0-48.15-21.526-48.151-48.069-0.001-26.565 21.595-48.119 48.151-48.119z m-442.325 0c26.542 0 48.172 21.566 48.172 48.119 0 26.547-21.648 48.069-48.172 48.069-26.513 0-48.119-21.545-48.119-48.069 0-26.538 21.583-48.119 48.119-48.119zM196.421 648.794l71.566-362.081c5.897-29.837 32.296-51.466 62.699-51.466h459.523c26.964 0 51.218 17.045 60.26 42.457l117.695 330.823c3.329 9.356 1.9 19.391-3.838 27.488-5.747 8.109-14.699 12.779-24.648 12.779H196.421z"  horiz-adv-x="1024" />

    
    <glyph glyph-name="jingqujingdian1" unicode="&#59098;" d="M946.08745 104.865H76.71045c-14.71 0-26.678-11.968-26.678-26.678 0-14.711 11.968-26.679 26.678-26.679h869.377c14.71 0 26.678 11.968 26.678 26.697l-0.002 0.094c-0.061 14.649-12.028 26.566-26.676 26.566zM852.33045-12.51H170.46645c-14.71 0-26.678-11.968-26.678-26.677 0-14.71 11.968-26.679 26.678-26.679H852.33045c14.711 0 26.679 11.969 26.679 26.679 0 14.71-11.968 26.677-26.679 26.677zM1019.14345 199.963L828.76845 461.994c-5.093 7.01-13.149 10.652-21.245 10.494-7.49 0.154-14.989-2.933-20.151-9.086L654.12445 304.605 412.52545 637.137l32.386-44.575c33.755 110.103 136.209 190.163 257.371 190.163 148.653 0.001 269.159-120.506 269.159-269.162 0.001-63.314-21.871-121.514-58.458-167.483l31.007-42.678c48.951 56.249 78.593 129.742 78.593 210.161 0 176.898-143.404 320.302-320.301 320.302-131.154 0-243.874-78.837-293.413-191.696l-46.201 63.591c-4.696 6.463-11.908 10.066-19.347 10.468-0.14 0.008-0.28 0-0.419 0.005a25.342 25.342 0 0 1-1.89 0.022c-8.274-0.249-16.294-4.472-20.983-11.979L3.86345 198.303c-7.452-11.926-3.792-27.781 8.134-35.233 11.927-7.453 27.782-3.793 35.235 8.134l296.205 474.023L631.90845 248.18c8.267-11.379 24.339-13.923 35.715-5.658 1.179 0.856 2.238 1.814 3.225 2.822a25.73 25.73 0 0 1 2.298 2.366L806.11045 406.175l171.659-236.271c8.268-11.378 24.339-13.923 35.717-5.657 11.379 8.269 13.923 24.34 5.657 35.716z"  horiz-adv-x="1024" />

    
    <glyph glyph-name="jiudian1" unicode="&#59100;" d="M996.67-39.773h-38.534a0.457 0.457 0 0 0-0.456 0.456V505.375c0 29.031-23.45 52.65-52.274 52.65h-198.96a0.456 0.456 0 0 0-0.456 0.455V809.782c0 29.031-23.449 52.649-52.271 52.649l-523.784 0.002c-29.449 0-53.408-23.619-53.408-52.651v-849.098a0.456 0.456 0 0 0-0.455-0.456H27.333C12.261-39.773 0-52.032 0-67.104c0-15.069 12.261-27.329 27.333-27.329H996.67c15.07 0 27.33 12.26 27.33 27.33s-12.26 27.33-27.33 27.33z m-345.34 0.456a0.457 0.457 0 0 0-0.456-0.456H131.646a0.456 0.456 0 0 0-0.455 0.456v823.59c0 12.736 11.107 23.496 24.253 23.496h472.764c12.965 0 23.122-10.321 23.122-23.496v-823.59z m251.688 0a0.457 0.457 0 0 0-0.456-0.456H706.445a0.457 0.457 0 0 0-0.456 0.456V502.907c0 0.251 0.205 0.455 0.456 0.455h173.452c12.965 0 23.121-10.321 23.121-23.496v-519.183zM501.799 616.658H280.723c-15.072 0-27.334-12.261-27.334-27.331s12.262-27.33 27.334-27.33h221.076c15.069 0 27.329 12.26 27.329 27.33-0.001 15.07-12.26 27.331-27.329 27.331zM501.799 438.095H280.723c-15.072 0-27.334-12.261-27.334-27.331s12.262-27.33 27.334-27.33h221.076c15.069 0 27.329 12.26 27.329 27.33s-12.26 27.331-27.329 27.331zM501.799 259.534H280.723c-15.072 0-27.334-12.26-27.334-27.33 0-15.07 12.262-27.331 27.334-27.331h221.076c15.069 0 27.329 12.261 27.329 27.331-0.001 15.07-12.26 27.33-27.329 27.33z"  horiz-adv-x="1024" />

    
    <glyph glyph-name="tesemeishi1" unicode="&#59122;" d="M432.319 493.158c-14.118 17.905-21.722 39.873-21.722 62.723 0 56.002 45.4 101.403 101.403 101.403s101.403-45.401 101.403-101.403c0-22.85-7.604-44.818-21.722-62.724 195.316-37.149 339.04-206.244 344.277-405.306 49.911-5.046 88.042-47.229 88.042-97.523v-20.276c0-54.135-43.889-98.024-98.024-98.024H98.024C43.889-127.973 0-84.084 0-29.949v20.276c0 50.294 38.132 92.477 88.042 97.523 5.236 199.064 148.96 368.158 344.277 405.308z m358.94-7.517a25.67 25.67 0 0 1 21.544-11.72 25.523 25.523 0 0 1 13.899 4.116c11.783 7.631 15.216 23.649 7.606 35.444-3.475 5.384-6.412 11.228-9.219 16.986-6.46 13.255-11.839 27.143-15.701 41.379-9.788 36.087-9.694 74.784 14.365 105.476 33.365 42.563 34.347 93.624 15.683 142.737-8.617 22.672-22.653 48.045-38.192 66.699-9 10.805-25.352 12.236-36.131 3.228-10.763-8.995-12.212-25.313-3.253-36.094 11.593-13.948 22.528-34 29.065-50.905 12.238-31.647 14.405-66.008-7.549-94.019-33.304-42.491-37.823-94.418-25.013-145.518 6.491-25.888 18.377-55.38 32.896-77.809z m137.91 0.07a25.706 25.706 0 0 1 21.539-11.717c4.945-0.009 9.772 1.436 13.923 4.115 11.796 7.619 15.221 23.652 7.612 35.446-3.477 5.387-6.416 11.234-9.224 16.995-6.46 13.256-11.838 27.144-15.7 41.381-9.786 36.084-9.69 74.779 14.368 105.468 33.365 42.565 34.347 93.621 15.683 142.735-8.615 22.666-22.658 48.055-38.194 66.702-8.991 10.792-25.368 12.228-36.132 3.221-10.75-8.997-12.198-25.292-3.247-36.068 11.596-13.96 22.479-33.908 29.028-50.82 12.262-31.669 14.456-66.062-7.515-94.102-33.302-42.503-37.834-94.44-25.027-145.553 4.663-18.607 11.46-36.76 19.822-54.016 3.931-8.111 8.156-16.222 13.064-23.787z m-862.788-9.883a25.696 25.696 0 0 1 21.545-11.717 25.52 25.52 0 0 1 13.899 4.118c11.819 7.656 15.224 23.626 7.575 35.447-3.487 5.387-6.423 11.251-9.232 17.018-6.459 13.256-11.835 27.144-15.693 41.382-9.778 36.076-9.676 74.757 14.376 105.437 33.365 42.564 34.347 93.622 15.683 142.737-8.614 22.667-22.655 48.049-38.191 66.699-9.005 10.81-25.346 12.24-36.131 3.227-10.773-9.001-12.211-25.282-3.252-36.071 11.601-13.968 22.481-33.914 29.031-50.835 12.256-31.665 14.446-66.053-7.517-94.09-33.298-42.505-37.812-94.442-24.995-145.548 4.668-18.608 11.468-36.762 19.834-54.018 3.929-8.111 8.159-16.219 13.068-23.786z m137.908 0.055c4.735-7.316 12.831-11.703 21.54-11.722 4.946-0.011 9.773 1.433 13.925 4.113 11.835 7.644 15.226 23.632 7.579 35.451-3.485 5.387-6.421 11.248-9.231 17.015-6.459 13.256-11.834 27.144-15.693 41.382-9.78 36.077-9.677 74.759 14.374 105.44 33.361 42.559 34.359 93.62 15.708 142.734-8.613 22.68-22.647 48.047-38.191 66.702-9.005 10.81-25.347 12.24-36.132 3.228-10.773-9.002-12.211-25.284-3.25-36.072 11.607-13.976 22.488-33.919 29.04-50.849 12.254-31.66 14.44-66.044-7.527-94.072-33.309-42.502-37.848-94.431-25.038-145.547 6.492-25.894 18.375-55.368 32.896-77.803z m670.759-387.531C868.8 284.565 708.439 439.765 512 439.765S155.2 284.566 148.954 88.352h726.094z m34.031-162.212c29.852 0 54.049 24.198 54.049 54.05 0 29.851-24.196 54.05-54.049 54.05H114.922c-29.851 0-54.05-24.198-54.05-54.05 0-29.851 24.198-54.05 54.05-54.05h794.157z"  horiz-adv-x="1024" />

    
    <glyph glyph-name="shipinguanli1" unicode="&#59132;" d="M387.711 130.539c-29.645 0.001-52.867 22.432-52.867 51.065V585.753c0 28.512 23.647 51.709 52.713 51.711 9.509 0 19.131-2.542 27.825-7.351 41.897-23.173 84.396-46.947 125.496-69.939 18.622-10.417 37.242-20.834 55.87-31.232 16.949-9.46 33.901-18.915 50.854-28.37 42.375-23.634 86.195-48.074 129.239-72.2 16.655-9.334 26.643-25.806 26.718-44.063 0.074-18.451-9.849-35.146-26.547-44.659-14.457-8.236-29.25-16.485-43.555-24.462-5.938-3.311-11.875-6.621-17.803-9.938-40.134-22.46-80.278-44.901-120.429-67.327a95431.316 95431.316 0 0 0-117.346-65.458 7021.832 7021.832 0 0 1-17.188-9.608c-15.205-8.517-30.929-17.324-46.488-25.649-8.152-4.361-17.31-6.667-26.483-6.668h-0.009z m5.173 451.301a3.936 3.936 0 0 1-3.931-3.931v-387.946c0-1.425 0.704-2.659 1.931-3.385 0.62-0.366 1.31-0.558 1.996-0.558 0.657 0 1.296 0.168 1.899 0.5 44.548 24.515 89.691 49.76 133.348 74.172 13.413 7.5 26.824 15 40.239 22.491l29.122 16.26c47.514 26.526 96.647 53.956 144.892 81.067 1.276 0.717 2.006 1.967 2.005 3.43-0.001 1.463-0.734 2.712-2.012 3.427-118.509 66.338-237.072 132.434-347.545 193.977a3.79 3.79 0 0 1-1.913 0.496h-0.031zM512.003-127.997C229.684-127.997 0 101.682 0 383.997c0 282.318 229.684 512 512.003 512 282.316 0 511.997-229.682 511.997-512 0-282.315-229.681-511.994-511.997-511.994zM512 841.474c-252.252 0-457.474-205.223-457.474-457.477 0-252.251 205.223-457.472 457.477-457.472 252.251 0 457.472 205.221 457.472 457.472 0 252.252-205.221 457.476-457.472 457.477H512z"  horiz-adv-x="1024" />

    
    <glyph glyph-name="tupianguanli1" unicode="&#59133;" d="M966.626 835.385l-909.252-0.001C25.738 835.384 0 809.646 0 778.01v-788.024c0-31.635 25.738-57.372 57.374-57.372h909.252c31.636 0 57.374 25.737 57.374 57.372V778.01c0 31.637-25.738 57.375-57.374 57.375z m3.248-815.088c0-18.504-15.051-33.558-33.551-33.558H87.678c-18.501 0-33.552 15.054-33.552 33.558V138.788c0 0.846 0.324 1.647 0.911 2.255l212.159 219.648c10.679 11.549 21.849 17.405 33.2 17.405h0.003c17.809 0 29.835-14.445 32.065-17.341 0.104-0.136 0.217-0.264 0.338-0.385l115.776-115.775a3.957 3.957 0 0 1 2.807-1.162 3.959 3.959 0 0 1 2.806 1.162l237.193 237.191c0.061 0.062 0.121 0.125 0.178 0.19 10.096 11.513 20.97 17.35 32.319 17.35 17.873 0 30.542-14.454 32.9-17.352 0.085-0.105 0.176-0.205 0.272-0.301l211.875-211.878a3.23 3.23 0 0 0 0.952-2.296l-0.006-247.202z m0 324.871a3.235 3.235 0 0 0-2.016-3.005 3.247 3.247 0 0 0-1.231-0.243 3.27 3.27 0 0 0-2.32 0.976L775.783 535.185c-18.395 19.498-36.564 29.384-54.001 29.384-28.424 0-45.854-26.704-46.027-26.974-0.126-0.198-0.271-0.38-0.432-0.542l-221.63-224.477a3.27 3.27 0 0 0-2.293-0.965l-0.06 0.001a3.255 3.255 0 0 0-2.321 1.022L345.773 422.511a3.45 3.45 0 0 0-0.201 0.237c-12.491 16.236-26.302 24.468-41.049 24.468-28.872 0-52.066-30.799-52.279-31.085a3.806 3.806 0 0 0-0.285-0.334L59.696 219.436a3.273 3.273 0 0 0-2.324-0.977 3.242 3.242 0 0 0-3.246 3.248V747.678c0 18.52 15.051 33.587 33.552 33.587h848.643c18.504 0 33.558-15.067 33.558-33.587l-0.005-402.51zM208.913 653.533c-31.636 0-57.374-25.737-57.374-57.372 0-31.632 25.738-57.367 57.374-57.367 31.632 0 57.367 25.735 57.367 57.367 0.001 31.635-25.734 57.372-57.367 57.372z"  horiz-adv-x="1024" />

    
    <glyph glyph-name="zhutihuodong2" unicode="&#59131;" d="M447.791-128c-32.558 0-59.046 26.226-59.046 58.463v58.463h246.51v-58.463c0-32.783-25.964-58.463-59.11-58.463H447.791zM385.288 66.37C358.82 96.709 64.79 437.048 64.79 578.372c0 87.499 41.52 167.054 116.912 224.012C262.769 863.628 376.983 896 511.997 896c135.017 0 249.232-32.372 330.3-93.616C917.69 745.426 959.21 665.871 959.21 578.372c0-140.425-294.034-481.588-320.502-512.002h-253.42z m350.476 724.21c7.998-100.512 0.243-209.391-22.425-314.867-14.272-66.477-36.506-136.879-66.081-209.248-17.652-43.085-37.278-85.482-58.331-126.012a1746.48 1746.48 0 0 0-6.644-12.643l-4.947-9.299h48.548l1.887 2.116c0.696 0.78 70.412 79.119 139.211 172.012 92.959 125.51 140.092 216.609 140.092 270.766 0 98.711-59.141 183.774-162.26 233.379l-9.923 4.773 0.873-10.977zM511.997 843.865c-59.395 0-114.649-7.166-164.225-21.3l-4.056-1.157-0.494-4.187a874.768 874.768 0 0 1-1.697-15.533c-9.737-99.944-2.775-208.852 20.13-314.966 13.663-63.555 34.983-131.01 63.368-200.485 16.946-41.532 35.885-82.475 56.29-121.688 11.931-23.017 19.795-36.772 23.419-42.923l1.836-3.114h10.881l1.83 3.143c3.88 6.661 12.09 21.081 23.465 42.816 20.41 39.226 39.35 80.168 56.299 121.699 28.385 69.482 49.705 136.937 63.368 200.488 22.836 106.366 29.775 215.295 20.067 315.013a887.593 887.593 0 0 1-1.699 15.55l-0.493 4.184-4.051 1.159c-49.412 14.134-104.669 21.301-164.238 21.301zM279.124 796.72c-103.08-49.519-162.199-134.56-162.199-233.316 0-54.482 47.134-145.681 140.093-271.062 68.801-92.798 138.518-170.944 139.215-171.723l1.886-2.109h48.573l-5.065 9.343c-1.65 3.045-3.337 6.288-5.122 9.721l-1.504 2.889c-20.799 39.914-40.423 82.31-58.327 126.007-29.445 72.049-51.679 142.451-66.081 209.246-22.668 105.482-30.423 214.339-22.423 314.798l0.874 10.971-9.92-4.765z"  horiz-adv-x="1024" />

    
    <glyph glyph-name="xiaotieshi" unicode="&#59076;" d="M520.2-68.8c-28.7 0-55.4 13-73.4 35.6l-116.9 147c-6.7 8.4-16.6 13.2-27.3 13.2l-2.5-0.1L113 113.8c-37.9-2.9-72 16.8-89.5 49.3-16.7 31-15.1 67 4.3 96.5l103.5 157.2c6.3 9.6 7.5 21.6 3.2 32.3L64 623.5c-11.9 29.5-8.6 61.5 9.1 87.8 22.5 33.4 64.4 49 103.4 38.2l180.5-50c10.9-3 23.1-0.4 31.8 6.9L532.2 827.1c17.3 14.6 38.1 22.2 60.3 22.2 50.7 0 92.2-39.6 94.4-90.1l8.5-188c0.5-11.5 6.6-21.9 16.4-28l159.5-99.9c30.6-19.1 47.3-53.3 43.7-89.2s-26.8-66.1-60.6-78.8l-175.7-65.9c-10.8-4-18.9-13.1-21.6-24.3L612 2.8c-10.5-42.1-48.2-71.6-91.8-71.6z m-217.6 255c28.9 0 55.8-13 73.7-35.6l116.9-146.9c9.1-11.5 20.9-13.2 27-13.2 13.8 0 29.7 8.2 34.2 26.6l45.2 182.2c7.5 30.1 29.3 54.6 58.3 65.5l175.7 65.9c12.7 4.8 21.1 15.7 22.5 29.2s-4.7 25.9-16.2 33.1l-159.5 99.9c-26.2 16.4-42.7 44.7-44.1 75.6l-8.5 188c-0.9 20.9-18.6 33.4-35.2 33.4-8 0-15.7-2.9-22.2-8.3L427 661.1c-16.9-14.3-38.5-22.1-60.7-22.1-8.5 0-16.9 1.1-25.1 3.4l-180.6 50.1c-14.8 4.1-29.9-1.7-38.4-14.3-3.8-5.7-9.4-17.4-3.3-32.4l70.5-174.5c11.6-28.7 8.4-61.2-8.6-87.1L77.3 227c-10.3-15.7-4.6-30.2-1.6-35.7 6.2-11.5 17.6-18.4 30.5-18.4l2.7 0.1L296 186c2.2 0.2 4.4 0.2 6.6 0.2zM982.3-81.3c-6.7 0-13.4 2.2-19 6.9L748.6 104.3c-12.6 10.5-14.3 29.2-3.8 41.8s29.1 14.3 41.7 3.8l214.8-178.7c12.6-10.5 14.3-29.2 3.8-41.7-5.8-7.2-14.3-10.8-22.8-10.8z"  horiz-adv-x="1024" />

    
    <glyph glyph-name="zhoubian" unicode="&#59077;" d="M936.1-63H87.8C46-63 12-29 12 12.9v39c0 61.8 12.6 263.7 174.9 287.6 24.5 3.6 45.6 4.1 63 4.1 6 0 12-0.1 18-0.1 5.9-0.1 11.8-0.1 17.9-0.1 35.3 0 79 2 150.2 25.7 103.9 34.6 100.7 121.4 100.6 122.3V755.1c0 41.8 34 75.9 75.9 75.9h323.6c41.8 0 75.9-34 75.9-75.9v-742.2c0-41.9-34-75.9-75.9-75.9zM250 286.8c-16.1 0-33.9-0.4-54.7-3.5-117.4-17.2-126.5-181.1-126.5-231v-39.5c0-10.5 8.6-19.1 19.1-19.1h848.3c10.3 0 19.1 8.7 19.1 19.1V755.1c0 10.3-8.7 19.1-19.1 19.1H612.5c-10.3 0-19.1-8.7-19.1-19.1v-262.3c2.3-43.6-23.9-139.1-139.4-177.6-79.3-26.4-128.4-28.6-168.2-28.6-6.3 0-12.4 0.1-18.5 0.1l-17.3 0.1zM40.4 119.4h943.2v-56.8H40.4zM727.1 696.4c0-17-13.8-30.8-30.8-30.8s-30.8 13.8-30.8 30.8 13.8 30.8 30.8 30.8 30.8-13.8 30.8-30.8M727.1 587.3c0-17-13.8-30.8-30.8-30.8s-30.8 13.8-30.8 30.8 13.8 30.8 30.8 30.8 30.8-13.8 30.8-30.8M727.1 478.2c0-17-13.8-30.8-30.8-30.8s-30.8 13.8-30.8 30.8 13.8 30.8 30.8 30.8 30.8-13.8 30.8-30.8"  horiz-adv-x="1024" />

    
    <glyph glyph-name="kefu" unicode="&#59079;" d="M952.124983 556.164646C918.876437 677.527987 847.513413 771.098708 740.052882 834.261844 686.250618 866.541403 626.261438 886.267133 561.75932 892.890043c-2.984959 0.422994-6.147916 0.633991-9.207874 0.837988-3.081958 0.205997-5.993918 0.399995-8.710881 0.788989l-0.203998 0.024C532.980713 895.509007 521.895865 896 510.690018 896c-25.203655 0-51.369298-2.433967-77.752937-7.231901-75.437969-13.409817-142.107057-42.861414-198.142291-87.525803-56.738224-44.815387-100.531626-97.536666-130.163221-156.697858-29.720594-59.339189-45.621376-126.010277-47.260353-198.140291-0.548992-19.200737-0.361995-38.989467-0.181998-58.127205 0.088999-9.449871 0.180998-19.221737 0.180998-28.717608v-32.731552c0-4.854934 0.553992-9.648868 1.194983-15.198793 0.149998-1.298982 0.305996-2.647964 0.460994-4.055944l0.035-0.246997c4.531938-25.944645 18.30575-49.77232 38.785469-67.092082 20.602718-17.424762 46.576363-27.019631 73.136-27.019631 7.628896 0 15.35179 0.856988 22.942687 2.544965 54.236258 11.864838 90.67576 56.829223 90.67576 111.88747V438.10426c0 6.769907-0.545993 14.425803-1.669977 23.40668l-0.02 0.138998c-8.439885 52.342284-57.245217 93.344724-111.109481 93.344724-6.042917 0-12.774825-0.845988-18.561746-1.673977-4.944932-0.70599-9.245874-1.969973-13.800811-3.306955-1.009986-0.296996-2.037972-0.598992-3.093958-0.899987l-0.158998-0.049c-0.931987-0.308996-1.972973-0.481993-3.075958-0.665991-1.248983-0.207997-2.657964-0.441994-4.123943-0.912987l0.022999 0.093999C166.249727 692.471783 309.824764 839.150777 512.183997 839.150777l10.539856 0.001C722.048128 834.270844 860.636233 687.985844 894.50277 546.064784l0.048-0.214997-2.269969 0.75899-0.294996 0.085999c-1.705977 0.426994-3.62395 0.852988-5.479925 1.264982a216.137045 216.137045 0 0 0-5.16193 1.188984l-0.097998 0.023c-1.984973 0.440994-3.960946 0.957987-5.87092 1.45698-5.13693 1.342982-10.448857 2.731963-16.266778 2.731963h-6.54691c-62.646144 0-113.612447-50.969303-113.612447-113.618447V326.827782c0-62.646144 50.966303-113.613447 113.612447-113.613447h6.54691c1.49698 0 2.744962 0.226997 3.845948 0.427994 1.091985 0.198997 2.121971 0.386995 3.515952 0.386995l0.653991 0.053999 4.801934 0.799989 0.824989 0.091999-0.117999-0.313996c-0.460994-0.976987-0.71799-1.892974-0.908987-2.573965a9.994863 9.994863 0 0 0-0.225997-0.743989c0.007 0.016 0.101999 0.222997 0.345995 0.468993l-0.72899-1.003986c-63.252135-124.061304-164.58075-198.485286-301.168882-221.203976h-2.94196c-1.006986 0-3.68095 0-6.222915 5.079931-13.753812 29.2246-43.750402 48.107342-76.418955 48.107342-9.683868 0-20.046726-1.830975-29.187601-5.15893-20.261723-7.441898-36.792497-21.9187-46.549364-40.765442-9.701867-18.741744-12.067835-40.521446-6.658909-61.335162 9.345872-35.672512 41.131438-61.791155 77.296944-63.514131l0.188997-0.005h4.089944c34.736525 0 66.332093 21.135711 80.521899 53.850264l0.242997 0.491993c1.45798 2.95996 2.421967 4.915933 6.458912 5.421926 8.77888 1.093985 16.579773 2.574965 23.463679 3.881947 3.579951 0.678991 6.961905 1.320982 10.24786 1.869974l0.147998 0.027c164.284754 33.845537 296.117952 154.864883 344.119295 315.849681 0.527993 1.185984 0.772989 2.409967 0.991986 3.502953 0.135998 0.677991 0.305996 1.521979 0.476994 1.864974l0.378995 1.215983c0.796989 5.581924 2.362968 10.819852 4.527938 15.149793l0.098998 0.211997c8.03189 18.752744 11.773839 35.369516 11.773839 52.295285V443.013193c0 39.724457-5.004932 77.799936-14.868796 113.151453z m-781.142321-58.211204c31.943563 0 56.617226-24.713662 57.392216-57.392215v-112.914457c0-29.202601-21.9327-53.489269-51.051302-56.574226h-6.340914c-26.233641 0-48.851332 18.226751-55.025247 44.330394-0.72299 3.615951-1.547979 8.354886-1.547979 13.061821V440.561227c0 32.18256 24.85066 57.392215 56.573226 57.392215zM911.591537 326.827782c0-28.985604-21.597705-52.792278-51.356298-56.605226l-0.75599-0.173998c-1.836975-0.613992-3.811948-0.613992-6.098916-0.613992-26.215642 0-48.820333 18.197751-55.015248 44.267395-0.801989 4.836934-1.557979 9.405871-1.557979 13.943809V441.381215c0 29.203601 21.9327 53.489269 51.051302 56.573227h6.340913c25.934645 0 48.886332-18.245751 55.856237-44.385393 0.71999-3.608951 1.535979-8.322886 1.535979-13.006822V326.827782z"  horiz-adv-x="1024" />

    
    <glyph glyph-name="yewubaobiao" unicode="&#59160;" d="M41.405-128V896h605.858c5-2.329 32.523-23.676 176.141-163.501 74.751-72.777 147.934-145.509 159.19-156.706V-128H41.405z m62.906 969.464a5.05 5.05 0 0 1-5.049-5.049v-904.836a5.049 5.049 0 0 1 5.049-5.049h815.387a5.052 5.052 0 0 1 5.053 5.049V577.892a5.049 5.049 0 0 1-5.049 5.049h-266.75V836.415a5.049 5.049 0 0 1-5.049 5.049H104.311z m611.539-64.627a5.05 5.05 0 0 1-5.048-5.05v-129.262a5.049 5.049 0 0 1 5.049-5.049h135.896a5.05 5.05 0 1 1 3.48 8.709L719.331 775.446a5.047 5.047 0 0 1-3.481 1.391zM177.301 130.518v54.534H778.75v-54.534H177.301z m0.007 193.895v54.53H574.9v-54.53H177.308z m-0.007 193.894v54.536h193.753v-54.536H177.301z"  horiz-adv-x="1024" />

    
    <glyph glyph-name="shoucang" unicode="&#58924;" d="M512.20147 896c-29.9 0-56.6-17.4-69.8-45.5L338.90147 631.9c-7.8-17-23.5-28.8-41.9-31.6l-231-35c-29-4.4-52.2-24.3-61.7-53.1-9.8-29.6-2.6-61.5 19-83.5l167.5-169.5c13.3-13.8 19.4-33.4 16.1-52.5l-39.6-240.2c-3.8-24.2 3-48.3 18.4-66.5 15.1-17.6 36.6-27.1 58.4-27.1 12.2 0 24.4 3 35.8 9.1l206.4 113.5c8 4.3 16.8 6.5 25.7 6.5 8.9 0 17.8-2.2 25.7-6.5l207-114c11.4-6.2 23.6-9.4 36.1-9.4 22.3 0 43.7 10.1 58.7 27.8 15.3 18.1 21.8 42.2 17.8 66.2l-39.6 240.2c-3.3 19 2.8 38.7 16 52.4l166.9 170.6c21.5 21.9 28.8 53.9 19 83.5-9.5 28.9-32.6 48.7-61.7 53.1l-230.9 35c-18.4 2.9-34.1 14.7-42 31.8L581.60147 851.1C568.50147 878.8 541.80147 896 512.20147 896z"  horiz-adv-x="1024" />

    
    <glyph glyph-name="QQ" unicode="&#58925;" d="M60.8 305.5c-38.2-90-44.4-175.8-13.7-191.9 21.2-11.1 54.3 14.1 85.4 60.3 12.3-50.3 42.7-95.9 86.2-132.4-45.6-16.8-75.4-44.3-75.4-75.5 0-51.2 80.6-92.7 180-92.7 89.7 0 164 33.7 177.7 77.9 3.7 0.1 17.9 0.1 21.4 0 13.8-44.2 88.1-77.9 177.8-77.9 99.5 0 180 41.5 180 92.7 0 31.1-29.7 58.7-75.4 75.5 43.4 36.6 74 82.1 86.2 132.4 31.1-46.2 64.2-71.3 85.3-60.3 30.7 16 24.7 101.9-13.7 191.9-30 70.7-70.8 122.8-102 134.3 0.5 4.5 0.7 9.1 0.7 13.6 0 27.3-7.6 52.6-20.6 73.2 0.2 1.6 0.2 3.2 0.2 4.8 0 12.6-3 24.4-8.1 34.6C825.2 749.8 705.5 895.8 511.8 895.8 318 895.8 198.3 749.8 190.5 566c-5.2-10.3-8.1-22-8.1-34.6 0-1.6 0.1-3.2 0.2-4.8-13-20.6-20.6-45.8-20.6-73.2 0-4.5 0.2-9.1 0.6-13.6-30.9-11.5-71.8-63.6-101.8-134.3z m0 0"  horiz-adv-x="1024" />

    
    <glyph glyph-name="AR" unicode="&#58926;" d="M497.3-2.5l-71.5 217.8h-219l-71.4-217.8H0l258.5 773h117.4l257.6-773H497.3zM379.5 356.9l-63.8 196-62.8-196h126.6zM864.5-2.5L651.3 375.8v-378.4h-134v773h206.9c40.9 0 73.4-3.4 99.3-10.5 27.1-7.4 52.1-19.7 74.3-36.8 30.1-23.1 54.2-54.2 71.6-92.5 17.1-37.8 25.8-78.3 25.8-120.6 0-62.8-17.5-118-52.1-163.8-22.7-30.1-49.6-51.8-80.2-64.6L1024-2.5H864.5z m-108 413.7c30.9 0 54.8 9.1 73.2 27.9 17.9 18.3 26.3 40.6 26.3 70.2 0 19.1-2.9 36.4-8.7 51.4-5.6 14.5-14.1 27.4-25.1 38.3-8.4 8.3-18.3 14.1-30.4 17.7-8.1 2.4-29.9 6.5-84.6 6.5h-55.8v-212h105.1z"  horiz-adv-x="1024" />

    
    <glyph glyph-name="quanjing" unicode="&#58927;" d="M391.5 457.2c-2.9 3.6-7.9 5.8-13.2 5.8-5.5 0-10.4-2.2-13.5-6L86.5 111.7l-32.3 26.1 278.3 345.3c11.2 13.9 27.9 21.9 45.8 21.9s34.5-8 45.8-21.9l347.6-443.8-32.7-25.6-347.5 443.5zM659.4 357.5c-2.7 3.4-6.3 3.9-8.2 3.9-1.9 0-5.4-0.5-8.2-3.9l-71-88.1-32.3 26.1 71 88.1c9.9 12.3 24.7 19.4 40.5 19.4s30.6-7.1 40.5-19.4l235-291.6-32.3-26.1-235 291.6zM748.2 451.2c-47.4 0-85.9 38.5-85.9 85.9s38.6 85.9 85.9 85.9c47.4 0 85.9-38.5 85.9-85.9s-38.5-85.9-85.9-85.9z m0 130.4c-24.5 0-44.4-19.9-44.4-44.4s19.9-44.4 44.4-44.4 44.4 19.9 44.4 44.4c0 24.4-19.9 44.4-44.4 44.4zM532-15.9c-54.5 0-532 7.6-532 259.4V523.4C0 737 369.6 783.8 512 783.8c236.2 0 512-68.2 512-260.4v-279.9c0-246.9-409.4-259.4-491.5-259.4h-0.5z m0.5 41.6c46.1 0 449.9 6.1 449.9 217.9V523.4C982.5 685 729 742.3 512 742.3c-122.1 0-470.5-40.2-470.5-218.9v-279.9C41.5 28.4 512 25.6 532 25.6h0.5z"  horiz-adv-x="1024" />

    
    <glyph glyph-name="baojingting" unicode="&#58928;" d="M967.6 44.2c-3.8 87.5-47.5 165.2-113.3 215.2V496.9c0 137.2-98.2 252.6-228.1 279.9v5.4C626.2 844.8 574.8 896 512 896c-62.8 0-114.2-51.2-114.2-113.8v-5.4C268 749.5 169.7 634.1 169.7 496.9v-237.5c-65.8-50-109.6-127.7-113.3-215.2h113.3v-0.8h684.5v0.8h113.4zM487.8-128h28.3c74.3 0 136.1 56 145 127.7H362.9c9-71.7 70.7-127.7 145-127.7h-20.1z"  horiz-adv-x="1024" />

    
    <glyph glyph-name="baojing" unicode="&#58929;" d="M217.7-20l-33-100.6h654.7L806.3-20zM510.1 587.5c-144.1 0-260.9-116.8-260.9-260.9v-320.5h525.5V326.6c0 144.1-116.8 260.9-260.9 260.9h-3.7zM207.3 431.3c2.2 11.1-0.1 22.5-6.3 31.9-6.3 9.4-16 15.9-27 18.1L50.9 506c-13.6 2.7-27.7-1.4-37.7-10.9C3.2 485.5-1.6 471.7 0.5 458c2.6-17.2 15.7-31.7 33.7-35.3l123-24.7c23-4.6 45.4 10.3 50.1 33.3zM179 716.4l78.4-98c14.7-18.3 41.4-21.3 59.7-6.6 8.8 7 14.5 17.3 15.7 28.5 1.3 11.2-2 22.5-9.1 31.2l-78.3 98c-14.7 18.3-41.4 21.3-59.8 6.7-18.3-14.7-21.2-41.5-6.6-59.8zM517.4 679.3c23.5-0.5 42.9 18 43.5 41.5l-0.3 125.5c0.5 23.5-18 42.9-41.5 43.5-23.5 0.5-42.9-18-43.5-41.5l0.3-125.5c-0.3-11.3 3.9-22.2 11.7-30.4 7.8-8.2 18.5-12.9 29.8-13.1zM714.1 602.4c8.5-7.5 19.5-11.3 30.8-10.5 11.2 0.7 21.8 5.9 29.2 14.4l82.9 94.2c14.5 17.7 12.4 43.7-4.8 58.8-17.2 15.1-43.2 13.9-59-2.7l-82.9-94.2c-8.3-9.4-12-22-10.1-34.5 1.4-9.6 6-18.6 13.9-25.5zM1023.5 448.6c-3.5 23.2-25.2 39.2-48.5 35.6l-124-18.9c-15.6-1.7-29-11.7-34.9-26.2-5.9-14.5-3.4-31.1 6.6-43.2 10-12.1 25.8-17.7 41.1-14.6l124 18.9c11.2 1.7 21.2 7.7 27.9 16.8 6.7 9.1 9.5 20.5 7.8 31.6z"  horiz-adv-x="1024" />

    
    <glyph glyph-name="icon-test" unicode="&#58930;" d="M511.9 896C274.6 896 81.6 707.1 81.6 474.7c0-226.3 412.9-584.5 412.9-584.5l17.4-18.2 17.5 18.2s412.9 358.2 412.9 584.5C942.4 707.1 749.3 896 511.9 896z m0-742.5c-182.1 0-329.7 147.6-329.7 329.8S330 813.1 511.9 813.1c182.2 0 329.8-147.7 329.8-329.8 0.2-182.2-147.6-329.8-329.8-329.8z m0 0M539.9 352.1c-21.4-18.7-40.6-35.6-63.6-55.8 0 9.8-0.7 16 0.1 22 2.1 13.7-4.3 17.1-16.9 17.9-49.2 3.1-97.3 11.9-141.7 34.2-15.9 8.1-31.2 19.1-43.8 31.8-19 19.2-18.3 43.5-1.1 64.4C289 486 310.7 497 334.2 505c-12.5-7.6-25.7-13.9-37.2-22.7-25.1-19.4-25.2-43.5-0.4-63.1 32-25.2 70.7-33.7 109.6-40.5 22.3-3.9 44.9-5.5 68.7-8.2 0.7 12.7 1.3 23 2.1 36.2 22.1-18.9 41.7-36 62.9-54.6z m16.3-14.4c-0.5 1.7-1.5 3.7-1.6 5.6-3.1 26.7-1.1 27 25.2 31.9 34.5 6.5 68.8 14.6 102.5 24.7 14.4 4.4 28.1 14.1 39.6 24.1 19 16.5 18.8 36.4 0.1 53.6-10.5 9.7-23.5 16.6-35 25.3 23.7-9.8 46-22 59.8-45 10-16.6 10.3-34.7-2.4-49.4-11.1-12.7-24.3-24.3-38.8-33-37.3-22.4-116.4-41.3-149.4-37.8zM732.3 617c-18.7 0-33.7-15.2-33.7-33.8 0-18.7 15.2-33.7 33.7-33.7 18.7 0 33.8 15.2 33.8 33.7-0.1 18.6-15.1 33.8-33.8 33.8z m0-49.9c-8.9 0-16.1 7.2-16.1 16.3 0 8.9 7.2 16.1 16.1 16.1 9.1 0 16.3-7.2 16.3-16.1 0-9.1-7.4-16.3-16.3-16.3z m0 0M340.9 613h95.8l-52.8-181.8h-31.8l48.1 167.5h-29.9v-37.4M385.4 429.2h-35.8l48.1 167.5h-25.3v-37.4H339V615h100.4l-54-185.8z m165.9 0h-99.8v86.3c0 2.6 0.2 5 0.7 7.3 0.2 2.4 1 4.4 2.3 6 0.9 1.5 2.7 2.9 5.5 4.5 3.2 1.8 7.2 3.2 12.1 3.8 5 0.7 12.1 1.1 20.9 1.1h22.5v59.3h-28.1v-38.4h-36v32c0 9.3 4 15.9 12 19.6 7.6 3.5 20.2 5.3 38.5 5.3 17.7 0 30-1.7 37.3-5.4 7.9-3.8 12-10.1 12-18.8v-48.1c0-5.5-0.5-9.4-1.3-11.9l-0.1-0.1c-1.2-2.4-3.7-4.7-7.5-6.7-3.3-1.8-7.5-3.2-12.2-3.9-4.3-0.6-11-1-20.8-1h-22v-72.8h28.1v46.3h35.7V429h0.2z m69.3-1.3c-17.4 0-29.6 1.7-37.3 5.4-8.1 3.8-12.2 10.2-12.2 18.8V586.4c0 6.5 0.6 11.2 1.8 14.3 1.5 3.4 3.9 6.1 7.2 8.2 4.5 2.8 9.8 4.8 16 5.9 6.4 1 14.9 1.5 25.7 1.5 11.3 0 20.3-0.7 26.8-2.1 6.5-1.3 11.7-3.7 15.6-7 2.7-2.1 4.5-4.3 5.5-6.6 0.5-1.3 1.1-4.2 1.1-14.3v-133.7c0-6.1-1.7-11.1-5.3-14.8-3.4-3.8-8.8-6.4-16-7.9-7-1.3-16.6-2-28.9-2z m-13.5 18.6h28.1V597.8h-28.1v-151.3z m0 0"  horiz-adv-x="1024" />

    
    <glyph glyph-name="bianji" unicode="&#58931;" d="M940.7-72.6H83.3c-17.2 0-31.2-12.4-31.2-27.7 0-15.3 14-27.7 31.2-27.7h857.4c17.2 0 31.2 12.4 31.2 27.7 0 15.3-14 27.7-31.2 27.7zM187.7 249.6l-83.1-221.8L323 114.3zM825.6 600L677.2 748.4 236.3 310.9 385 162.1zM954 730.5c10.8 10.8 16.8 25.1 16.8 40.2s-6 29.4-16.8 40.2l-68.2 68.2C875 890 860.7 896 845.5 896s-29.4-6-40.2-16.8L731.1 805l148.4-148.4 74.5 73.9z"  horiz-adv-x="1024" />

    
    <glyph glyph-name="bofang" unicode="&#58932;" d="M512 896C229.7 896 0 666.3 0 384s229.7-512 512-512 512 229.7 512 512S794.3 896 512 896z m174.6-548.8l-252-145.5c-35-20.2-63.6-3.7-63.6 36.7V529.5c0 40.4 28.6 56.9 63.6 36.7l252.1-145.6c35-20.1 35-53.2-0.1-73.4z"  horiz-adv-x="1024" />

    
    <glyph glyph-name="bofang-" unicode="&#58933;" d="M888.19446 465.991253C714.397019 584.28951 399.101663 761.386902 219.604306 871.085287 146.00539 917.484604 84.2063 898.884878 78.206388 816.886085c-4.299937-219.596766 0-643.190528 0-866.48724 3.699946-83.198775 77.098865-94.198613 140.797927-60.799104 179.29736 108.598401 487.492821 295.295651 667.690167 404.494043-1.199982 0.69999 136.797985 76.598872 1.499978 171.897469z"  horiz-adv-x="1024" />

    
    <glyph glyph-name="biyan" unicode="&#58934;" d="M512.1 287.2c-110.8 0-210.3 24.7-295.8 73.4C131.4 409 59.9 481.4 4 575.7c-3.9 6.6-5 14.4-3 21.9 2 7.7 7 14.1 14.1 18.1 4.6 2.6 9.9 4 15.2 4 10.9 0 21.1-5.6 26.4-14.7 101.8-171.7 255-258.8 455.2-258.8s353.4 87.1 455.2 258.9c5.4 9.2 15.6 14.9 26.5 14.9 5.3 0 10.6-1.4 15.3-4 7-4 12-10.4 14.1-18.1 2-7.5 0.9-15.3-3-22-55.8-94.3-127.2-166.7-212.1-215.2-85.4-48.8-185-73.5-295.8-73.5zM512.1 148.1c-16.8 0-30.5 13.2-30.5 29.4V316.6c0 16.2 13.7 29.4 30.5 29.4s30.5-13.2 30.5-29.4v-139.1c0-16.2-13.7-29.4-30.5-29.4z m318.2 78.8c-10.9 0-20.7 5.3-26.2 14.3l-68.5 110.7c-4.1 6.6-5.3 14.4-3.5 21.9 1.9 7.7 6.8 14.2 13.7 18.3 4.8 2.8 10.3 4.3 15.8 4.3 10.8 0 20.6-5.3 26.1-14.3l68.5-110.6c4.1-6.6 5.3-14.4 3.4-21.9-1.9-7.7-6.8-14.2-13.7-18.3-4.6-2.9-10.1-4.4-15.6-4.4z m-639.8 0c-5.6 0-11.1 1.4-15.7 4.2-7 4.1-11.9 10.6-13.9 18.2-1.9 7.5-0.7 15.3 3.4 22L232.8 382c5.5 9 15.3 14.3 26.2 14.3 5.6 0 11-1.5 15.8-4.3 6.9-4.1 11.8-10.5 13.7-18.1 1.9-7.5 0.7-15.3-3.4-22l-68.5-110.7c-5.4-8.9-15.3-14.3-26.1-14.3z"  horiz-adv-x="1024" />

    
    <glyph glyph-name="chakan" unicode="&#58935;" d="M0 602.7l38.4 39.9 112.4-116.1-38.4-39.9L0 602.7z m868.8-71.2l114.3 114.3L1024 605 909.7 490.7l-40.9 40.8zM485.3 661.3V849.1h58.2v-187.8h-58.2zM515.1 575.4c-123.9 0-320.3-89.7-460.2-325.2 152.6-250.7 354.3-331.3 466.3-331.3s256.2 46.8 447.9 331.3c-202.7 277-347.1 325.2-454 325.2z m0.1-598.2C428-22.8 269.5 34 113.7 248 259 459.4 409 517.1 515.2 517.1c109.9 0 258.2-75.8 392.2-266.8-143-219.3-305-273.1-392.2-273.1zM508.9 415.9c-91.5 0-165.7-74.2-165.7-165.7 0-91.5 74.2-165.7 165.7-165.7 91.5 0 165.7 74.2 165.7 165.7 0 91.5-74.2 165.7-165.7 165.7z m0-283c-64.8 0-117.4 52.5-117.4 117.3S444 367.5 508.9 367.5c64.8 0 117.3-52.5 117.3-117.3 0.1-64.8-52.4-117.3-117.3-117.3z"  horiz-adv-x="1024" />

    
    <glyph glyph-name="canyin" unicode="&#58936;" d="M1.6 676.5c-4.7 31.2 0.9 60.9 22.1 84.2 0.3 0.3 0.3 0.6 0.6 1 24.9 31.2 59 40.4 95.9 35 86.4-12.6 158-52.7 208.2-124.9 30.3-43.8 37.5-92.4 14.5-142.9-3.5-7.3-0.9-11.4 4.1-16.1 38.2-36 76-71.9 113.9-107.9 11.7-11 12-10.7 0.6-21.8-15.5-14.8-31.9-29.3-46.7-44.8l-1.6-1.6c-0.3 0-0.3-0.3-0.6-0.3-0.3-0.3-0.6-0.6-1-0.6-0.3-0.3-0.3-0.3-0.6-0.3-0.3-0.3-0.6-0.3-0.6-0.6-0.3 0-0.3-0.3-0.6-0.3s-0.3-0.3-0.6-0.3-0.3-0.3-0.6-0.3-0.3-0.3-0.6-0.3-0.3-0.3-0.6-0.3h-0.6c-0.3 0-0.3 0-0.6-0.3h-1.6c-0.9 0-1.9 0.3-2.8 0.6-0.3 0-0.6 0.3-1 0.3h-0.3c-0.3 0-0.6 0.3-0.9 0.6h-0.6c-0.3 0.3-0.6 0.3-1 0.6l-0.3 0.3c-0.3 0.3-0.6 0.6-1 0.6-0.6 0.3-0.9 0.9-1.6 1.3l-1.6 1.6c-0.6 0.6-1.3 1.3-1.9 2.2-35 36.6-70 72.9-104.7 109.5-4.7 5-8.8 7.3-16.1 4.1-50.2-23.3-98.7-16.7-142.9 13.6-73 50.3-113.4 122-126.3 208.1zM862.4-4.3c-6.9-17-18.3-32.5-32.5-44.2-11.7-9.8-28.4-21.8-44.5-16.7h-0.3c-9.8 3.2-17.7 10.4-25.2 17.7-30.9 31.2-60.2 64.4-90.5 96.5-33.1 34.7-65.9 69.7-99 104.4-11.7 12.3-23 24.3-34.7 36.6-11.4 12-11.4 11.7 0 23.3 16.7 17.3 33.8 34.4 49.5 52.4 8.2 9.5 13.9 8.2 22.1 0.3 35-33.8 70.3-66.9 105.4-100.3 47.3-44.8 94.3-89.9 142-134.4 11.5-10.3 13.1-22 7.7-35.6zM1021.4 655.3c-11.4-26.2-29.3-47.9-48.6-68.8-31.9-34.4-62.8-69.7-99.7-98.7-42.3-33.1-89.9-45.7-142.3-25.6-6.9 2.5-10.7-0.3-14.8-4.7-67.2-71-134.7-142-202.2-212.9-55.2-58-110.1-116.1-165.3-174.1-39.8-42-79.5-83.6-118.9-125.5-5-5.4-10.7-8.8-17.3-11.4h-2.2c-34.7 7.2-58 28.7-72.6 60.2-8.2 18-6.6 25.2 7.6 38.8 158 150.2 316.4 300 474.4 450.1 11.7 11 23.3 22.4 35 33.8 4.1 4.1 6.6 7.9 3.8 14.2-26.8 57.7-13.3 110.7 25.6 156.2 38.5 44.8 81.4 86.1 127.4 123.6 9.8 8.2 20.5 15.8 32.5 20.5 13.3 5.4 24 4.1 36.3-2.2 17-8.8 17-9.5 4.1-23l-99.4-103.2c-10.4-10.7-20.8-21.5-30.6-32.8-7.9-9.2-7.2-17.3 1-24.9 8.5-7.6 15.8-6.6 28.4 4.1l135.3 115.5c23 19.6 16.1 17.7 37.5-1.9 7.3-6.6 7.9-11.4 1-19.2-41.6-48.3-83-97.2-124.3-145.7-9.8-11.7-10.4-20.2-2.2-28.4 8.2-7.9 17-6.9 28.1 3.8 41 39.1 82 78.5 123 118 24.6 23.7 24.6 24 39.1-7.6 4.4-11.4 3.2-19.6 0.3-28.2z"  horiz-adv-x="1024" />

    
    <glyph glyph-name="cesuo" unicode="&#58937;" d="M244.6 650.2c67.1 0 121.5 55 121.5 122.9S311.7 896 244.6 896 123.1 841 123.1 773.1s54.4-122.9 121.5-122.9zM727.3 650.2c67.1 0 121.5 55 121.5 122.9S794.5 896 727.3 896c-67.1 0-121.5-55-121.5-122.9s54.4-122.9 121.5-122.9zM396.5 609.3H92.7c-52.5 0-60.7-50.2-60.7-61.4v-368.2c0-11.3 9.1-20.5 20.2-20.5h50.6c11.2 0 20.2-9.2 20.2-20.5v-246.2c0-11.3 9.1-20.5 20.2-20.5h202.5c11.2 0 20.2 9.2 20.2 20.5V138.7c0 11.3 9.1 20.5 20.2 20.5H437c11.2 0 20.2 9.2 20.2 20.5V547.8c0 11.3-2.7 61.5-60.7 61.5zM990.8 124.8L846.1 525.1c-16.4 50.3-62.8 84.2-115.1 84.2h-7c-52.2 0-98.7-33.8-115.1-84.2l-145-400.3c-4.8-13.4 4.9-27.5 19-27.5h133c11.2 0 20.2-9.2 20.2-20.5v-184.3c0-11.3 9.1-20.5 20.3-20.5h141.7c11.2 0 20.3 9.2 20.3 20.5V76.8c0 11.3 9.1 20.5 20.2 20.5h133c14.2 0 24 14.1 19.2 27.5z"  horiz-adv-x="1024" />

    
    <glyph glyph-name="chanpin" unicode="&#58938;" d="M784.9-128c-131.8 0-239.1 107.2-239.1 239 0 1.2 0 2.4 0.1 3.7v1.2l-0.1 234.1h239.1c131.8 0 239.1-107.2 239.1-239s-107.3-239-239.1-239zM605.6 115.6l-0.1-4.5c0-98.8 80.6-179.2 179.5-179.2 99 0 179.5 80.5 179.5 179.4S884 290.7 785 290.7H605.5l0.1-175.1zM239.1-128C107.3-128 0-20.8 0 111s107.3 239 239.1 239h239.1l-0.1-234.2v-1.2c0-1.2 0.1-2.4 0.1-3.6 0-131.8-107.3-239-239.1-239z m-0.1 418.7c-99 0-179.5-80.5-179.5-179.4S140-68.1 239-68.1c98.9 0 179.4 80.4 179.5 179.3l-0.1 4.3 0.1 175.2H239z m306.8 127.2l0.1 234.2v1.2c0 1.2-0.1 2.4-0.1 3.6 0 131.8 107.3 239 239.1 239C916.7 896 1024 788.8 1024 657S916.7 418 784.9 418H545.8zM785 477.3c99 0 179.5 80.5 179.5 179.4S884 836.1 785 836.1c-98.9 0-179.4-80.4-179.5-179.3l0.1-4.3-0.1-175.2H785z m-545.9-59.4C107.3 417.9 0 525.1 0 657 0 788.8 107.3 896 239.1 896s239.1-107.2 239.1-239c0-1.2 0-2.4-0.1-3.7v-1.2l0.1-234.1H239.1zM239 836.1c-99 0-179.5-80.5-179.5-179.4S140 477.3 239 477.3h179.5l-0.1 175.2 0.1 4.5c-0.1 98.7-80.6 179.1-179.5 179.1z"  horiz-adv-x="1024" />

    
    <glyph glyph-name="cai" unicode="&#58939;" d="M609.4 896h175.8c54 0 92-20.4 113-60.7 9.1-16 41.3-75.5 70.9-167.6 36.5-113.7 54.9-231.8 54.9-351-0.1-39.8-28-90.6-89.4-108.1-32.2-8.5-102-10-198.6-12.2-23.4-0.6-47.5-1.1-73.7-1.8l-3-0.1 0.6-2.9c6.8-31 8-59.7 8-105.1 0-53.1-18.5-107.9-50.8-150.3-30.6-40.2-69.9-64.2-105.1-64.2-51.2 0-93.4 41.9-94 93.3-0.6 50.5-14.4 174.7-129.8 235.4-7.7 4.1-30.6 15.4-34 16.9l0.3-2.3-2.2 2.5c-18.4-15.4-40.9-24.3-61.8-24.3H94c-51.8 0-94 42.2-94 94V801.8C0 853.6 42.2 895.8 94 895.8h96.6c35.6 0 67.6-20.7 83.6-54.1l0.9-1.9 2 0.7c0.4 0.1 0.9 0.3 1.1 0.3h0.1s6.2 1.6 7.9 2.1c0.6 0.2 0.9 0.2 1.4 0.4 25.6 6.3 69.4 16.6 130.3 30.6C434.1 877.5 519.8 895.9 609.4 896zM284.9 267.9c0.3-2.3 2.1-2.4 2.3-2.3h1.1l0.6 0.7C354 238.6 403.4 194.5 435.7 135c33.4-61.4 41-125.7 41.5-168.8 0.2-17 13.2-34.6 34.6-34.6 18.2 0 42.4 17.9 61.8 45.7 12.9 18.6 34.7 57.5 34.7 109.4 0 76.7-3.3 90.4-28.8 166.4 300.6 0 315.6 4.1 340.4 10.9 1.5 0.4 3 0.8 4.6 1.2 37.1 10.6 40 42.2 40 51.6 0 6.9-0.1 9-0.3 12.1-0.1 1.8-0.2 4.1-0.4 8.2-7 167.2-38.7 286.2-64.1 356.5-26.8 74.1-52.4 111.4-54.1 113.8C834.2 827.9 816 836.6 785 836.6H609.3c-84.9 0-169.2-18.5-178.7-20.6-127.3-29.3-139.7-32.9-147.9-35.2l-3-0.9 4.7-474.3c0-23.4 0.3-32.7 0.4-36.2l0.1-1.5z m-94.4-15c19.1 0 34.6 15.5 34.6 34.6V801.9c0 19.1-15.5 34.6-34.6 34.6H94c-19.1 0-34.6-15.5-34.6-34.6v-514.4c0-19.1 15.5-34.6 34.6-34.6h96.5z"  horiz-adv-x="1024" />

    
    <glyph glyph-name="daochu" unicode="&#58940;" d="M992 896c4.2 0 8.2-0.8 12.1-2.4 0 0 1.2-0.5 1.2-0.6 10.9-5 18-15.9 18-27.7V603c0-17.2-13.7-30.6-31.3-30.6h-0.3c-17 0-30.9 13.8-31 30.8V759.5c0 5.2-3.1 9.8-7.8 11.7-1.5 0.6-3.2 1-4.8 1-3.4 0-6.6-1.3-9-3.7-3.6-3.6-356.7-357.7-357.1-358.2-5.7-5.9-13.7-9.3-22-9.3-8.2 0-16.2 3.4-22 9.3-11.8 12.1-11.8 31.7-0.1 43.8L895.5 812.3c3.6 3.6 4.7 9.1 2.7 13.8-2 4.8-6.6 7.8-11.7 7.8h-160c-17 0-30.9 13.8-31 30.8 0 17.5 13.7 31.2 31.3 31.2h263.5c0.6 0.1 1.1 0.1 1.7 0.1zM162.6-128c-89.4 0.1-162 72.8-162 162.2V733.8C0.6 823.2 73.3 895.9 162.7 896h374.5c16.9-0.1 30.7-13.8 30.7-30.8 0-16.6-14-30.6-30.6-30.6H162.6c-55.2 0-100-44.9-100-100.1v-699.6c0-55.2 44.9-100.2 100-100.2h698.7c55.2 0 100 44.9 100 100.2V406.6c-0.1 8.1 3.2 16.1 9 21.8 5.7 5.6 13.2 8.7 21.1 8.7h1.2c16.9-0.1 30.6-13.9 30.7-30.7v-372.1c0-89.4-72.6-162.1-162-162.2H162.6z"  horiz-adv-x="1024" />

    
    <glyph glyph-name="daoru" unicode="&#58941;" d="M560.3 401c-4.2 0-8.2 0.8-12.1 2.4 0 0-1.2 0.5-1.2 0.6-10.9 5-18 15.9-18 27.7V694.1c0 17.2 13.7 30.6 31.3 30.6h0.3c17 0 30.9-13.8 31-30.8v-156.4c0-5.2 3.1-9.8 7.8-11.7 1.5-0.6 3.2-1 4.8-1 3.4 0 6.6 1.3 9 3.7C616.9 532.1 970 886.2 970.4 886.7c5.7 5.9 13.7 9.3 22 9.3 8.2 0 16.2-3.4 22-9.3 11.8-12.1 11.8-31.7 0.1-43.8L656.7 484.7c-3.6-3.6-4.7-9.1-2.7-13.8 2-4.8 6.6-7.8 11.7-7.8h160c17 0 30.9-13.8 31-30.8 0-17.5-13.7-31.2-31.3-31.2H561.9c-0.5 0-1.1-0.1-1.6-0.1zM162.6-128c-89.4 0.1-162 72.8-162 162.2V733.8C0.6 823.2 73.3 895.9 162.7 896h374.5c16.9-0.1 30.7-13.8 30.7-30.8 0-16.6-14-30.6-30.6-30.6H162.6c-55.2 0-100-44.9-100-100.1v-699.6c0-55.2 44.9-100.2 100-100.2h698.7c55.2 0 100 44.9 100 100.2V406.6c-0.1 8.1 3.2 16.1 9 21.8 5.7 5.6 13.2 8.7 21.1 8.7h1.2c16.9-0.1 30.6-13.9 30.7-30.7v-372.1c0-89.4-72.6-162.1-162-162.2H162.6z"  horiz-adv-x="1024" />

    
    <glyph glyph-name="daishiyong" unicode="&#58942;" d="M27.4 227.5c-15 0-27.3 12.3-27.3 27.3v67.5c0 15.1 12.2 27.3 27.3 27.3 15 0 27.3-12.3 27.3-27.3v-67.5c0-15-12.3-27.3-27.3-27.3zM27.4 229.7c-13.9 0-25.1 11.3-25.1 25.2v67.5c0 13.9 11.3 25.2 25.1 25.2 13.9 0 25.1-11.3 25.1-25.2v-67.5c0-13.9-11.2-25.2-25.1-25.2zM27.4-128c-15 0-27.3 12.2-27.3 27.3V146.6c0 15.1 12.2 27.3 27.3 27.3 15 0 27.3-12.3 27.3-27.3v-220h846.9l-6.4 8.1c-15 19-22.6 39.7-22.6 61.5 0 47 33.6 69.5 60.6 87.6 23.1 15.5 36.1 25 36.1 41.6 0 17.4-13.1 26.9-36.3 42.3-26.9 17.8-60.3 40-60.3 86.9 0 47.9 33.8 70.2 61 88.2 25.5 16.8 35.9 25.2 35.9 41 0 16.8-13.1 26.3-36.2 41.7-27.1 17.9-60.7 40.3-60.7 87.5 0 21.8 7.6 42.5 22.6 61.5l6.4 8.1H69.4l-0.9-0.3c-2.6-1-5.6-1.6-9-1.7l-4.9-0.1V419c0-15.1-12.2-27.3-27.3-27.3-15 0-27.3 12.2-27.3 27.3V610.2c0 15.1 12.2 27.3 27.3 27.3H40.1l56.8 174c3.6 11.3 14 18.9 25.8 18.9 2.1 0 4.3-0.3 6.4-0.8l116.8-27.8L367.1 890.7c4.7 3.4 10.4 5.3 16.2 5.3 4.7 0 9.3-1.2 13.3-3.5l390.3-219.8 148.5-35.3H996.1c13.5 0 24.8-9.6 26.9-22.9 2.1-13.3-5.5-26-18.2-30.3-21.6-7.4-77.7-34.6-77.7-71.1 0-17 13.1-26.6 36.3-42 27-17.9 60.5-40.2 60.5-87.2 0-46.7-33.4-68.8-60.3-86.6-23.3-15.3-36.5-24.9-36.5-42.6 0-16.7 13-26.2 35.9-41.4 27.1-18 60.8-40.4 60.8-87.8 0-46.7-33.5-69-60.3-87-23.3-15.6-36.4-25.2-36.4-42.2 0-36.5 56.3-63.5 78-70.9l0.3-0.1c0.3-0.1 0.8-0.3 1.3-0.5l1.3-0.6c9.8-4.4 16.1-14.2 16.1-24.9 0-15.1-12.2-27.3-27.3-27.3H27.4zM657.1 637.5l22.3 0.1-538.5 133-43.4-133.1H657.1z m-98 89.7l55.1-14-229 123.1-69.6-51L559.1 727.2zM673.7-47.2c-15 0-27.3 12.2-27.3 27.3v64.6c0 15.1 12.2 27.3 27.3 27.3 15 0 27.3-12.3 27.3-27.3v-64.6c0-15.1-12.3-27.3-27.3-27.3z m-322.8 80c-15 0-27.3 12.2-27.3 27.3V162H189.5c-15 0-27.3 12.2-27.3 27.3 0 14.2 11.1 26.1 25.2 27.2H323.8v74.6H189.5c-15 0-27.3 12.3-27.3 27.3 0 15.1 12.2 27.3 27.3 27.3h95.8l-83.9 84.4c-10.6 10.7-10.5 28 0.1 38.7 5.2 5.1 12 7.9 19.3 7.9 7.3 0 14.2-2.9 19.4-8.1l110.8-111.5 109.9 110c5.2 5.2 12 8 19.3 8 7.3 0 14.2-2.8 19.3-8 10.7-10.7 10.7-28 0-38.7l-82.6-82.7h95.5c15 0 27.3-12.3 27.3-27.3 0-15.1-12.2-27.3-27.3-27.3H378.2v-74.6h134.2c15 0 27.3-12.3 27.3-27.3 0-15.1-12.2-27.3-27.3-27.3H378.2V60c0-15-12.2-27.2-27.3-27.2z m322.8 81.5c-15 0-27.3 12.3-27.3 27.3v64.6c0 15.1 12.2 27.3 27.3 27.3 15 0 27.3-12.2 27.3-27.3v-64.6c0-15-12.3-27.3-27.3-27.3z m0 161.4c-15 0-27.3 12.2-27.3 27.3v64.6c0 15.1 12.2 27.3 27.3 27.3 15 0 27.3-12.2 27.3-27.3V303c0-15-12.3-27.3-27.3-27.3z m0 161.5c-15 0-27.3 12.2-27.3 27.3v64.6c0 15.1 12.2 27.3 27.3 27.3 15 0 27.3-12.2 27.3-27.3v-64.6c0-15.1-12.3-27.3-27.3-27.3z"  horiz-adv-x="1024" />

    
    <glyph glyph-name="daifukuan" unicode="&#58943;" d="M130.187286-127.90001C58.394297-127.90001 0-69.505712 0 2.287277V460.342545c0 71.792989 58.394297 130.187286 130.187286 130.187286h59.094229L358.764964 881.901377c4.999512 8.69915 14.398594 14.098623 24.497608 14.098623 4.899522 0 9.799043-1.299873 14.098623-3.799629l129.787326-74.392735 69.493213 69.493214c5.399473 5.399473 12.498779 8.29919 20.098038 8.299189 7.599258 0 14.698565-2.999707 20.098037-8.299189L888.11327 636.025388c5.399473-5.399473 8.29919-12.498779 8.29919-20.098037 0-7.599258-2.999707-14.698565-8.29919-20.098037l-5.399473-5.399473h11.098917c71.792989 0 130.187286-58.394297 130.187286-130.187287v-458.055268c0-71.792989-58.394297-130.187286-130.187286-130.187286H130.187286z m0 661.635387c-40.496045 0-73.392833-32.896787-73.392832-73.392832v-458.055268c0-40.496045 32.896787-73.392833 73.392832-73.392833h763.525437c40.496045 0 73.392833 32.896787 73.392833 73.392833V460.342545c0 40.496045-32.896787 73.392833-73.392833 73.392832H130.187286z m672.234353 56.794454L827.919149 616.027341 616.739772 827.206718 552.54604 763.012987l-1.199882-1.199883-171.283274-171.283273h422.358755z m-502.650913 0l185.781857 185.781857-91.991017 52.694854-138.686456-238.476711h44.895616z m517.649448-463.954692c-57.694366 0-104.689776 46.995411-104.689777 104.689777s46.995411 104.689776 104.689777 104.689776 104.689776-46.995411 104.689776-104.689776-46.995411-104.689776-104.689776-104.689777z m0 152.685089c-26.497412 0-47.995313-21.497901-47.995313-47.995312s21.497901-47.995313 47.995313-47.995313 47.995313 21.497901 47.995313 47.995313c-0.09999 26.497412-21.597891 47.995313-47.995313 47.995312z"  horiz-adv-x="1024" />

    
    <glyph glyph-name="daohang" unicode="&#58944;" d="M565.599273-128c-1.49998 0-2.899961 0.099999-4.499939 0.299996-14.099809 1.999973-25.199658 13.099822-27.199631 27.29963l-62.199156 444.093976L28.306561 405.992757c-14.199807 1.999973-25.199658 13.099822-27.199631 27.299629-1.999973 14.199807 5.599924 27.899622 18.699746 33.699543L978.293675 893.286147c12.099836 5.299928 26.199645 2.699963 35.599517-6.599911 9.399872-9.399872 11.999837-23.499681 6.599911-35.599517l-425.594227-959.986978c-5.299928-11.79984-16.799772-19.099741-29.299603-19.099741z"  horiz-adv-x="1024" />

    
    <glyph glyph-name="chanpin-shixin" unicode="&#58945;" d="M461.15329 16.6c0-25.8-40.3-59.9-57.9-76.4-83.7-78.4-210.5-90-305.4-24.3C20.05329-30.1-13.64671 78.5 5.15329 168.3c14.4 68.9 71.1 166.2 160.6 166.2h295.5c-0.1 0-0.1-317.5-0.1-317.9zM461.15329 433.5H165.65329C76.25329 433.5 19.45329 530.8 5.05329 599.7-13.64671 689.5 20.05329 798.1 97.85329 852.1c94.8 65.7 221.7 54.1 305.4-24.3 17.6-16.5 57.9-50.6 57.9-76.4v-317.9zM924.85329-84.1c-94.8-65.7-221.7-54.1-305.4 24.3-17.6 16.5-57.9 50.6-57.9 76.4V334.5H857.05329c89.4 0 146.2-97.3 160.6-166.2 18.6-89.8-15-198.4-92.8-252.4zM957.05329 491.5c-16.5-17.6-50.6-57.9-76.4-57.9H562.75329v31.6 263.9c0 89.4 97.3 146.2 166.2 160.6C818.75329 908.4 927.45329 874.8 981.35329 797c65.7-95 54.1-221.8-24.3-305.5z"  horiz-adv-x="1024" />

    
    <glyph glyph-name="dianzan-" unicode="&#58946;" d="M933.108876 560.932721c-39.996094 10.498975-134.086906 10.398984-271.573479 13.998633 6.499365 29.997071 7.999219 57.094424 7.999219 105.189728C669.534616 794.909872 585.942779 896 511.950005 896c-52.194903 0-95.290694-42.69583-95.990626-95.290694-0.699932-64.393712-20.597988-175.682843-127.987501-232.177327-7.899229-4.19959-30.397032-15.298506-33.69671-16.698369l1.699834-1.399863c-16.79836 14.498584-40.096084 25.5975-63.99375 25.5975H95.990626c-52.894834 0-95.990626-43.095791-95.990626-95.990626v-511.950005c0-52.894834 43.095791-95.990626 95.990626-95.990626h95.990626c38.09628 0 69.893174 22.997754 85.391661 55.19461 0.399961-0.09999 1.099893-0.299971 1.499853-0.399961 2.099795-0.599941 4.599551-1.199883 7.699248-1.999805 0.599941-0.09999 0.899912-0.19998 1.499854-0.39996 18.398203-4.599551 53.894737-13.098721 129.687335-30.497022 16.298408-3.699639 102.09003-21.997852 191.18133-21.997852h174.882922c53.294795 0 92.890929 19.898057 114.588809 61.693975 21.29792 37.196368 125.687726 236.476907 125.587736 517.249488-0.09999 40.496045-28.097256 92.091007-90.891124 109.989258z"  horiz-adv-x="1024" />

    
    <glyph glyph-name="dianzan" unicode="&#58947;" d="M609.340494-127.90001c-89.591251 0-175.282883 18.398203-191.481301 21.997852-60.894053 13.998633-104.689776 24.297627-130.287276 30.597012-0.499951 0.19998-0.799922 0.19998-1.399863 0.399961-1.699834 0.499951-7.899229 2.099795-7.899229 2.099795h-0.09999c-0.19998 0-0.699932 0.19998-1.099893 0.299971l-1.999805 0.699931-0.899912-1.899814c-15.998438-33.396739-47.995313-54.094717-83.591836-54.094718H93.990821c-51.794942 0-93.990821 42.195879-93.990821 93.990822V480.540572c0 51.794942 42.195879 93.990821 93.990821 93.990821h96.490577c20.897959 0 43.395762-8.899131 61.793966-24.297627l2.199785 2.499756-0.299971-2.299775c3.399668 1.499854 26.297432 12.79875 33.99668 16.898349C403.56059 628.026169 417.359242 752.214042 417.959184 802.70911 418.559125 854.104091 460.755004 896 511.950005 896c35.196563 0 74.492725-23.997656 105.089737-64.293721 32.296846-42.39586 50.79504-97.190509 50.79504-150.285324 0-45.395567-1.199883-74.092764-7.999219-105.089737l-0.599941-2.899717 2.999707-0.09999c26.197442-0.699932 50.295088-1.199883 73.692803-1.799825 96.590567-2.199785 166.383752-3.699639 198.580607-12.198808 61.394004-17.498291 89.29128-68.293331 89.391271-108.089445 0-119.188361-18.398203-237.276828-54.894639-350.965726-29.59711-92.091007-61.793965-151.585197-70.893077-167.583634-20.997949-40.296065-58.994239-60.694073-112.988966-60.694073H609.340494zM284.87218 500.138658l-0.09999-1.599843c-0.09999-3.499658-0.399961-12.79875-0.399961-36.196466L279.672688-11.911337l2.999707-0.899912c8.199199-2.299775 20.597988-5.899424 147.885558-35.196563 9.499072-2.099795 93.790841-20.597988 178.682551-20.597988H784.923347c30.996973 0 49.195196 8.69915 60.594083 29.197149 1.699834 2.399766 27.297334 39.696123 54.094717 113.888878 25.39752 70.293135 57.094424 189.281515 64.093741 356.465188 0.19998 4.0996 0.299971 6.399375 0.399961 8.1992 0.19998 3.099697 0.299971 5.199492 0.299971 12.098818 0 9.399082-2.899717 40.995996-39.996094 51.594962-1.599844 0.399961-3.099697 0.799922-4.599551 1.199883-24.797578 6.799336-39.796114 10.898936-340.366761 10.898935 25.49751 75.992579 28.797188 89.691241 28.797188 166.383752 0 51.894932-21.797871 90.791134-34.696612 109.389317-19.398106 27.797285-43.595743 45.695538-61.793966 45.695538-21.39791 0-34.396641-17.598281-34.596621-34.596622-0.499951-43.095791-8.099209-107.389513-41.495948-168.783517-32.296846-59.49419-81.692022-103.589884-146.785665-131.287179l-0.599942 0.699932h-1.099892c-0.19998 0.09999-1.999805 0-2.299776-2.299776zM93.990821 515.137194c-19.098135 0-34.596621-15.498486-34.596621-34.596622V-33.909189c0-19.098135 15.498486-34.596621 34.596621-34.596621h96.490577c19.098135 0 34.596621 15.498486 34.596622 34.596621V480.540572c0 19.098135-15.498486 34.596621-34.596622 34.596622H93.990821z"  horiz-adv-x="1024" />

    
    <glyph glyph-name="dianhua" unicode="&#58948;" d="M187.2-128c-19.3 0-38.8 8.3-59.6 25.2-21.8 17.9-44.5 44.9-69.3 82.6-51.6 78.9-67.9 144.3-53 212.3 14.2 64.6 55.6 129.9 112.6 215C201.3 532.9 326 658.8 488.5 781.5c50.4 37.3 93 63 133.8 81C673.4 885.1 723 896 774.1 896h2.8c24.6-0.3 58.9-12.3 96.4-34 35.5-20.5 71.8-48.6 99.5-76.9 32.8-33.5 51.4-65.1 51.2-86.7-0.3-21.3-28.3-56.1-78.9-98-44.7-37.1-93.4-68.7-115.2-80.9-47.2-26.2-80-38.4-103.3-38.4-34.8 0-48.1 27.3-72.5 84-4.6 10.6-9.3 21.5-14.6 33.3l-3.6 7.8-7.6-4c-128.4-67.4-192.4-120.9-273.8-229-2.5-3.3-5-6.5-7.5-9.8-22.5-29.3-45.8-59.5-49.2-104.2l-0.5-6.8 6.7-1.7c56.4-14 89.2-34.9 100.5-64 18.7-48.6-26.6-116-66.6-175.5-4.3-6.3-8.7-12.9-12.9-19.2-54.3-83.1-96.7-120-137.8-120z m563 972.3C674 844.3 599 800.7 502.8 730.2c-31.2-22.7-67-49.2-96.6-75.8-29.3-26-132.2-120.3-224-239.8-87.7-114-132.6-208-133.4-279.6 0-55.3 71.3-194.2 147.5-213l3.5-0.9 3 2c20.4 13.7 58 58 91.4 107.5 18.5 27.4 61.9 95.8 65.9 139.7l0.6 7-6.8 1.7c-21.5 5.3-75 26.5-88.8 39.7l-0.1 0.3c-21.5 19.4-24.5 49.8-8.8 90.5 24.2 62.9 92.7 147.1 183.4 225.3 83.1 71.7 164.3 120 201.9 120h0.4c12.8 0 29.7-16.8 46.2-46.1 14.8-26.2 26.5-57.3 30.4-74.5l2.2-9.9 9.2 4.3C816 569.4 897.4 608 971.6 692.9l3.6 4.1-2.5 4.9c-22.8 44.7-39.9 58.7-79.7 88.9-48.3 36.1-95 53.5-142.8 53.5z"  horiz-adv-x="1024" />

    
    <glyph glyph-name="dingwei" unicode="&#58949;" d="M512-128c-12.3 0-18.7 1.8-23.4 6.4-2.3 2.9-262.7 311.3-331.8 461.1-25.2 53.2-38 111.8-38 168.5C118.8 721.6 294.9 896 512 896s393.2-175 393.2-390.3c0-64.9-12.3-114.1-42.1-169.7-82.5-153.3-325.3-453.5-327.7-456.4-2.9-3.5-8.2-7-22.8-7l-0.6-0.6z m0 807.5c-96 0-173.8-77.8-173.8-173.8S416 331.9 512 331.9c96 0 173.8 77.8 173.8 173.8S608 679.5 512 679.5z m0 0"  horiz-adv-x="1024" />

    
    <glyph glyph-name="ditu" unicode="&#58950;" d="M512 440.9c-71.3 0-129.4 55.3-129.4 123.3s58 123.3 129.4 123.3c71.3 0 129.4-55.3 129.4-123.3s-58.1-123.3-129.4-123.3z m0 193.2c-40.6 0-73.5-31.4-73.5-69.9 0-38.6 33-69.9 73.5-69.9 40.6 0 73.5 31.4 73.5 69.9 0.1 38.5-32.9 69.9-73.5 69.9zM664.2-104.9c-0.4 0-0.8 0.1-1.3 0.2l-353.5 97.9L56.9-88l-50.6-16.3c-0.5-0.2-1-0.2-1.5-0.2-1 0-2 0.3-2.8 0.9-1.3 0.9-2 2.3-2 3.9v628c0 2.2 1.6 4.2 3.7 4.7l152 36.7c0.3 0.1 0.7 0.1 1.1 0.1 1.1 0 2.1-0.4 3-1.1 1.2-0.9 1.8-2.3 1.8-3.8v-1.9c0-16.6 1.1-31.2 3.5-44.6 0.4-2.5-1.1-4.9-3.6-5.5L60.3 488.4v-516.9l246.1 79 0.2 0.1c0.8 0.5 1.6 0.7 2.5 0.7h0.5c0.8 0 1.5-0.2 2.2-0.6l0.2-0.1L664.2-47l299.6 83.3V555.4L863.1 523.6c-0.5-0.2-1-0.2-1.5-0.2-1.1 0-2.2 0.4-3.1 1.1-1.3 1.1-1.9 2.6-1.7 4.3 2.5 19.1 3.7 38 4.8 55.7 0.1 2.1 1.5 3.8 3.6 4.4l152.9 42c0.4 0.1 0.9 0.2 1.3 0.2 1 0 2.1-0.4 2.9-1 1.2-0.9 1.9-2.4 1.9-3.8v-628.1c0-2.2-1.4-4.1-3.6-4.7l-355-98.3c-0.6 0-1-0.1-1.4-0.1zM512.2 74.3c-1.3 0-2.7 0.5-3.7 1.3l-32.6 25.8c-11.6 9.2-22.9 19.5-31.3 27.4-23.4 21.8-45.2 44.8-64.7 68.2-2.1 2.2-4.1 4.6-5.9 7.2-47.6 61.5-86.5 121.2-115.8 177.5-28.1 54.3-45.4 101.6-52.9 144.8-2.3 16-3.5 29.3-3.6 40.6-0.6 82.9 32.5 160.7 93.2 218.9 58.4 56 135.5 86.9 217.1 86.9 81.9 0 159.2-30.9 217.6-86.9 60.4-57.9 93.3-135.2 92.7-217.6-0.1-11.7-1.3-25.1-3.8-42.1C799.7 417 716.6 291.2 650.2 205c-1.7-2.5-3.7-5-5.9-7.3-19.5-23.5-41.2-46.5-64.6-68.4-10.5-9.9-20.8-19.4-31.3-27.6l-32.4-26c-1.1-0.9-2.4-1.4-3.8-1.4z m-0.2 738.4c-67.2 0-130.2-26.2-177.4-73.8-45.8-46.1-70.8-107-70.3-171.5 0.1-11.5 1.7-24 3-32.5C285.3 431 374.1 304.6 425.4 238.5c0.2-0.2 0.3-0.4 0.5-0.7l0.1-0.1 0.1-0.1c0.2-0.2 0.6-0.7 0.8-0.9l0.4-0.4c18.2-22.1 38.6-43.7 60.6-64.2 6.7-6.2 14.7-13.5 23-20.4l1.2-1 1.2 1c8.4 7.1 16.4 14.4 23 20.6 22 20.7 42.4 42.3 60.5 64.4 0.1 0.2 0.3 0.3 0.4 0.5l0.3 0.3c0.2 0.2 0.4 0.4 0.5 0.6l0.1 0.1 0.1 0.2c0.1 0.2 0.3 0.5 0.5 0.7 51.4 66.7 140.3 193.8 158 296.9 1.2 8.3 2.1 15.7 2.6 22.9l0.1 1.6c0.2 2.2 0.4 5 0.3 7.1 0 0.4-0.1 0.6-0.1 0.8 0.5 64.1-24.3 124.7-69.8 170.6-46.4 46.8-111.3 73.7-177.8 73.7z"  horiz-adv-x="1024" />

    
    <glyph glyph-name="dingwei-" unicode="&#58951;" d="M983.8 583.3C958 644.3 921.1 699 874 746c-47 47-101.8 83.9-162.7 109.7C648.2 882.5 581.1 896 512 896c-69.1 0-136.2-13.5-199.3-40.2C251.7 830 197 793.1 150 746c-47-47-83.9-101.8-109.7-162.7C13.5 520.2 0 453.1 0 384c0-69.1 13.5-136.2 40.2-199.3C66 123.7 102.9 69 150 22c47-47 101.8-83.9 162.7-109.7 63.1-26.7 130.2-40.2 199.3-40.2 69.1 0 136.2 13.5 199.3 40.2C772.3-62 827-25.1 874 22c47 47 83.9 101.8 109.7 162.7 26.7 63.1 40.2 130.2 40.2 199.3 0.1 69.1-13.4 136.2-40.1 199.3z m-181.3-227h160.4c1.3 0 2.5-0.5 3.4-1.5 0.9-0.9 1.3-2.2 1.2-3.5-15.9-225.2-197.7-407-422.9-422.9h-0.3c-1.2 0-2.3 0.4-3.2 1.2-0.9 0.9-1.5 2.1-1.5 3.4V93.5c0 15.2-12.4 27.6-27.7 27.6-15.3 0-27.7-12.4-27.7-27.6v-160.4c0-1.3-0.5-2.5-1.5-3.4-0.9-0.8-2-1.2-3.2-1.2h-0.3C254-55.6 72.2 126.2 56.3 351.4c-0.1 1.3 0.4 2.5 1.2 3.5 0.9 0.9 2.1 1.5 3.4 1.5h160.4c15.2 0 27.6 12.4 27.6 27.7 0 15.3-12.4 27.7-27.6 27.7H61.1c-1.3 0-2.5 0.5-3.4 1.5-0.9 0.9-1.3 2.2-1.2 3.5C72.4 642 254.2 823.8 479.4 839.7h0.3c1.2 0 2.3-0.4 3.2-1.2 0.9-0.9 1.5-2.1 1.5-3.4v-160.4c0-15.2 12.4-27.6 27.7-27.6 15.3 0 27.7 12.4 27.7 27.6V834.9c0 1.3 0.5 2.5 1.5 3.4 0.9 0.8 2 1.2 3.2 1.2h0.3c225.2-15.9 407-197.7 422.9-422.9 0.1-1.3-0.4-2.5-1.2-3.5-0.9-0.9-2.1-1.5-3.4-1.5H802.5c-15.2 0-27.6-12.4-27.6-27.7 0-15.2 12.4-27.6 27.6-27.6zM512 476.2c-50.9 0-92.2-41.4-92.2-92.2 0-50.9 41.4-92.2 92.2-92.2 50.9 0 92.2 41.4 92.2 92.2 0 50.9-41.3 92.2-92.2 92.2z"  horiz-adv-x="1024" />

    
    <glyph glyph-name="dingdan" unicode="&#58952;" d="M619.5 896H395c-27.5 0-49.6-24.5-49.6-54.8 0-30.4 22.1-54.9 49.6-54.9h225.9c26.2 0 48.2 24.6 48.2 54.9 0 30.3-22 54.8-49.6 54.8z m265.1-36.6H751.5c1.1-6 1.8-12.1 1.8-18.2 0-46.1-33.4-91.5-73.2-91.5H336.6c-41.9 0-75.4 45.4-75.4 91.5 0 6.1 0.7 12.2 1.8 18.2H128.6c-91 0-113.3-51.6-113.3-126v-736.8c0-79.9 32-124.6 120.2-124.6h742.2c88.2 0 131 35.1 131 124.6V733.5c0 74.4-40.1 125.9-124.1 125.9z m-122-727.5H248c-17.9 0-35.8 22-35.8 39.9s15.1 33.2 33.1 33.2h513.2c17.9 0 33.1-13.9 34.4-33.2 0-17.9-12.4-39.9-30.3-39.9z m2 195.1H250c-17.9 0-29.3 19.3-29.3 37.2 0 18 15.1 35.9 33.1 35.9H767c17.9 0 33.1-16.6 34.4-35.9-0.1-17.9-18.9-37.2-36.8-37.2z m0 200.4H250c-17.9 0-29.3 19.3-29.3 37.2 0 18 15.1 35.9 33.1 35.9H767c17.9 0 33.1-16.6 34.4-35.9-0.1-17.9-18.9-37.2-36.8-37.2z"  horiz-adv-x="1024" />

    
    <glyph glyph-name="duogongneng" unicode="&#58954;" d="M107.5 491.9C48.2 491.9 0 443.7 0 384.3c0-59.4 48.2-107.5 107.5-107.5 59.4 0 107.5 48.2 107.5 107.5 0.1 59.4-48.1 107.6-107.5 107.6z m0 0M511.6 491.9c-59.4 0-107.5-48.2-107.5-107.5 0-59.4 48.1-107.5 107.5-107.5s107.5 48.2 107.5 107.5-48.1 107.5-107.5 107.5z m0 0M915.7 491.9c-59.3 0-107.5-48.2-107.5-107.5 0-59.4 48.2-107.5 107.5-107.5 59.4 0 107.6 48.2 107.6 107.5s-48.2 107.5-107.6 107.5z m0 0"  horiz-adv-x="1024" />

    
    <glyph glyph-name="erji-1" unicode="&#58957;" d="M890.6 380.9h-54.5c-2 183.6-146.9 332.4-324.8 332.4S188.5 564.6 186.5 380.9h-53.1C59.9 380.9 0 321.1 0 247.5v-59.4c0-73.6 59.9-133.4 133.4-133.4h94c20.9 0 38.7 15.3 41.9 36 1.2 4 1.9 8.2 1.9 12.4V377c0 138.7 107.7 251.5 240 251.5 132.4 0 240-112.8 240-251.5v-273.9c0-7.6 2-14.7 5.5-20.8 6.2-16.6 22-27.6 39.7-27.6h94.1c73.6 0 133.4 59.9 133.4 133.4v59.4c0.1 73.6-59.8 133.4-133.3 133.4z m0 0"  horiz-adv-x="1024" />

    
    <glyph glyph-name="erji1" unicode="&#58958;" d="M163.7-26.6c-18 0-41.4 3.1-69.4 9.3-31.7 7-55.7 26.8-71.5 59C7.7 72.7 0 116 0 170.4c0 79.3 23.9 130.8 71.1 153.2l0.8 0.4v0.9c0.5 63.8 11.2 123.8 32.1 178.2 21.3 55.7 53.6 107.2 96.2 153.1 42.5 45.9 90.3 80.8 142.2 103.8 51.8 23 108.9 34.6 169.7 34.6 60.8 0 117.9-11.7 169.7-34.6 51.8-23 99.6-57.9 142.2-103.7 42.6-45.8 74.9-97.3 96.2-153 20.7-54.2 31.5-113.8 32-177.4v-0.7l0.6-0.4c47.4-35.5 71.4-90.7 71.4-164 0-50.5-7.7-90.9-22.9-120.1-15.7-30.2-39.7-49.3-71.3-56.7-28.8-6.8-52.7-10.2-71.1-10.2-21.1 0-36.1 4.7-44.7 13.9-15 16.1-22.6 36.9-22.6 61.6V243.1c0 24.9 7.6 45.6 22.6 61.6 15 16.2 34.4 24.4 57.6 24.4h27.6v1.5c-2.2 110.9-40.3 207.1-113.5 285.8-75.4 81.2-167.5 122.3-273.9 122.3-106.6 0-198.8-41.1-274-122.2-73.1-78.9-111.3-175.1-113.5-285.8v-1.5h27.6c23.2 0 42.6-8.2 57.7-24.5 15-16 22.7-36.7 22.7-61.6v-193.9c0-24.8-7.6-45.5-22.6-61.6-8.8-9.5-23.9-14.2-46.2-14.2z m677.2 253.3c0-0.8 0-83.2 0.5-120.8v-0.5c-3.9-69.7 9.7-71.9 16.2-73 1-0.2 2-0.3 3-0.6h0.2c0.1 0 0.5-0.1 1.2-0.1 10.9 0 41.5 7.6 53 10.5l2.3 0.6h0.3c23.1 2.9 39.5 21.5 49 55.4 7.4 26.5 7.7 53.6 7.5 57.8v0.8c2.7 50.3-9.6 79.8-20.4 95.7-8.6 12.6-17.6 18.8-21 20.8l-0.4 0.2h-0.4c-4.6-0.1-13.9-0.3-25.1-0.3-14.5 0-27.4 0.3-38.1 0.8h-0.4c-32.3-7.5-27.6-44.7-27.4-46.2l0.1-0.6v-0.5zM91.2 273.4c-3.5-2-12.4-8.2-21-20.8-10.8-15.9-23.1-45.4-20.4-95.5v-0.9c-0.2-4.3 0.1-31.5 7.5-57.9 9.4-33.8 25.9-52.5 48.8-55.4l0.7-0.1 2.1-0.5c11.5-2.9 42.1-10.5 53-10.5 0.7 0 1.1 0 1.2 0.1h0.2c1 0.3 2.1 0.4 2.9 0.6 6.6 1.1 20.1 3.3 16.3 72.8v0.6c0.5 37.5 0.5 120 0.5 120.8v0.6l0.1 0.6c0.2 1.6 5 38.7-27.4 46.2h-0.4c-10.8-0.6-23.6-0.8-38.1-0.8-11.2 0-20.6 0.2-25.1 0.3h-0.4l-0.5-0.2z"  horiz-adv-x="1024" />

    
    <glyph glyph-name="duogongneng1" unicode="&#58959;" d="M107.5 491.9C48.2 491.9 0 443.7 0 384.3c0-59.4 48.2-107.5 107.5-107.5 59.4 0 107.5 48.2 107.5 107.5 0.1 59.4-48.1 107.6-107.5 107.6z m0 0M511.6 491.9c-59.4 0-107.5-48.2-107.5-107.5 0-59.4 48.1-107.5 107.5-107.5s107.5 48.2 107.5 107.5-48.1 107.5-107.5 107.5z m0 0M915.7 491.9c-59.3 0-107.5-48.2-107.5-107.5 0-59.4 48.2-107.5 107.5-107.5 59.4 0 107.6 48.2 107.6 107.5s-48.2 107.5-107.6 107.5z m0 0"  horiz-adv-x="1024" />

    
    <glyph glyph-name="fengche" unicode="&#58960;" d="M618.284132 249.990299c-10.599728-8.999769-61.398424 40.598958-119.99692 109.49719-52.99864 62.198404-95.097559 118.596956-93.89759 135.696518-20.099484-12.999666-46.598804-10.399733-63.798363 6.19984-17.299556 16.599574-20.799466 42.998896-8.499782 63.598368 12.199687 20.599471 37.099048 30.099228 59.898463 22.899413-10.499731 9.799748 6.399836 79.397962 35.399091 161.195863C457.688254 834.275304 489.887427 900.373608 503.087089 895.773726c13.099664-4.699879-3.999897-75.59806-34.29912-160.895871-28.999256-81.797901-59.398476-147.29622-73.698109-148.196197a51.518678 51.518678 0 0 0 31.999179-38.799004c3.199918-17.599548-2.899926-35.599086-16.199584-47.598778 17.699546-2.499936 62.798388-48.898745 115.197043-110.397167 58.598496-68.998229 102.797362-130.896641 92.197634-139.89641zM321.891739 533.483024c2.499936-13.699648-68.398245-34.099125-157.295963-50.498704-88.797721-16.499577-161.995843-22.59942-164.495779-8.999769-2.499936 13.699648 68.398245 34.099125 157.295964 50.498704 88.797721 16.499577 161.995843 22.59942 164.495778 8.999769zM374.790381 209.691333c-11.6997 0-21.899438-13.199661-25.199353-32.399168l8.399785 271.893022c0 0.799979-0.099997 1.699956-0.099998 2.499936 0 1.499962 0.099997 3.09992 0.199995 4.599882v1.299967h0.099997c1.699956 17.599548 6.499833 18.29953 16.799569 18.29953 10.399733 0 15.19961-0.799979 16.799569-18.29953h0.099998v-1.299967c0.099997-1.499962 0.199995-3.09992 0.199994-4.599882 0-0.799979 0-1.699956-0.099997-2.499936l8.399784-275.49293c-2.399938 20.999461-13.099664 35.999076-25.599343 35.999076zM405.089604-100.900695c0.39999-13.599651-3.09992-20.799466-16.899567-23.999385-10.399733-2.399938-17.499551-2.499936-31.699186 0.299993-7.39981 1.499962-13.499654 8.799774-11.6997 25.099356l4.29989 290.392547V191.991788c0 1.399964 0 2.699931 0.099997 4.099894v0.999975-0.099998c1.299967 25.299351 11.999692 44.79885 25.099356 45.498833 13.099664 0.699982 24.399374-17.599548 26.399323-42.698904 0 0.499987 0.099997 0.999974 0.099997 1.499961l0.099998-5.199867c0.099997-1.399964 0.099997-2.699931 0.099997-4.099894v-1.099972l4.499884-291.792511h-0.399989zM850.178181 94.394292c-8.299787 0-15.5996-9.399759-17.899541-22.999409l5.999846 193.195042v1.799953c0 1.099972 0 2.199944 0.099998 3.299916v0.899977h0.099997c1.199969 12.499679 4.599882 12.999666 11.999692 12.999666s10.799723-0.499987 11.999692-12.999666h0.099998v-0.899977c0.099997-1.099972 0.099997-2.199944 0.099997-3.299916v-1.799953l5.999846-195.794976c-1.999949 14.899618-9.699751 25.599343-18.499525 25.599343zM1022.873749 125.593492c-7.499808-6.399836-43.598881 28.899258-85.297811 77.798003-37.599035 44.198866-67.598265 84.297837-66.698288 96.497524-14.299633-9.199764-33.099151-7.39981-45.398835 4.399887-12.299684 11.799697-14.79962 30.499217-6.099844 45.19884 8.699777 14.599625 26.299325 21.399451 42.598907 16.199584-7.39981 6.99982 4.599882 56.49855 25.199353 114.597059 21.499448 60.598445 44.498858 107.597239 53.79862 104.297323 9.299761-3.299915-2.799928-53.698622-24.299377-114.397064-20.599471-58.098509-42.198917-104.697313-52.398655-105.397295 11.799697-4.599882 20.499474-15.099612 22.699418-27.599292 2.299941-12.499679-2.099946-25.299351-11.499705-33.89913 12.599677-1.799954 44.598855-34.799107 81.7979-78.497985 41.69893-48.798748 73.098124-92.797618 65.598317-99.197454zM812.179156 327.088321c1.799954-9.699751-48.598753-24.199379-111.797131-35.899079-63.198378-11.6997-115.197044-16.099587-116.996997-6.299838-1.799954 9.699751 48.598753 24.199379 111.797131 35.899078 63.198378 11.599702 115.197044 15.999589 116.996997 6.299839zM871.677629-109.70047c0.299992-9.599754-2.199944-14.79962-11.999692-16.999563-7.39981-1.699956-12.399682-1.799954-22.499422 0.199995-5.199867 1.099972-9.599754 6.199841-8.299787 17.799543L831.978648 80.994636v0.79998c0 0.999974 0 1.899951 0.099997 2.899925v0.699982-0.099997c0.899977 17.999538 8.499782 31.799184 17.799544 32.299171 9.299761 0.499987 17.299556-12.499679 18.69952-30.299222 0 0.39999 0.099997 0.699982 0.099997 1.099971l0.099998-3.699905c0-0.999974 0.099997-1.899951 0.099997-2.899925v-0.79998l3.199918-190.695106h-0.39999z"  horiz-adv-x="1024" />

    
    <glyph glyph-name="erweima1" unicode="&#58961;" d="M0-81.5c0-25.7 20.8-46.5 46.5-46.5h325.8V244.3H0v-325.8z m140.6 186.4h93.1v-93.1h-93.1v93.1z m324.9-46.7h93.1V-128h-93.1V58.2zM0 430.5h186.2v-93.1H0v93.1z m465.5 0H279.3v-93h186.2v-186.2h93V616.7h-93v-186.2z m186.2-186.2h186.2v-186.2H651.7V244.3zM372.3 896H46.5C20.8 896 0 875.2 0 849.5v-325.8h372.3V896zM233.7 663.4h-93.1v93.1h93.1v-93.1zM977.5 896H651.7v-372.3H1024V849.5c0 25.7-20.8 46.5-46.5 46.5z m-92.2-232.6h-93.1v93.1h93.1v-93.1zM465.5 896h93.1v-186.2h-93.1V896z m279.2-465.5H1024v-93.1H744.7v93.1z m0 0M930.9-34.9H651.7v-93.1h325.8c25.7 0 46.5 20.8 46.5 46.5V244.3h-93.1v-279.2z m0 0"  horiz-adv-x="1024" />

    
    <glyph glyph-name="fenxiang" unicode="&#58962;" d="M359.4 134.2c-1.5 0-3.1 0.1-4.6 0.4-14.3 0.3-22.9 14.3-22.9 27.9v0.4C357 484.5 613.8 738.6 932.5 760.6L823.1 819.3l-39.2 23C769.8 850.8 765 867.9 773 881.2 778.5 890.5 787.8 896 797.9 896c4.9 0 9.7-1.4 14-3.9l39.1-23 147.7-78.4 0.2-0.1c24.1-16.1 31.9-47.3 17.6-71L915 549.2l-23-39.1c-5.6-9.3-14.9-14.8-25-14.8-4.9 0-9.7 1.4-14 3.9-14.1 8.5-18.9 25.5-10.9 38.9l23 39.1 76.1 128.2C646.5 689.7 408.3 456.8 385.4 160c-0.1-14.8-11.2-25.8-26-25.8zM120.1-128C52.8-128 0-75.3 0-8V729C0 795.2 53.9 849 120.1 849h315.8c16.4 0 27.9-11.5 27.9-27.9s-11.5-27.9-27.9-27.9H120.1c-36.7 0-64.3-27.6-64.3-64.3v-737c0-36.6 27.6-64.3 64.3-64.3h783.8c36.7 0 64.3 27.6 64.3 64.3V427.3c0 16.4 11.5 27.9 27.9 27.9 13.4 0 27.9-10.7 27.9-27.9V-8c0-67.3-52.8-120-120.1-120H120.1z"  horiz-adv-x="1024" />

    
    <glyph glyph-name="gouwu" unicode="&#58964;" d="M146.3 749.7h731.4c24.9 0 43.9 19 43.9 43.9s-19 43.9-43.9 43.9H146.3c-24.9 0-43.9-19-43.9-43.9s19-43.9 43.9-43.9zM863.1 3.7H160.9V296.2H87.8V-11c0-26.3 29.3-58.5 55.6-58.5h735.8c26.3 0 55.6 32.2 55.6 58.5V296.2h-71.7v-292.5zM933.3 691.2H87.8L0 461.5c0-68.8 57.1-125.8 127.3-125.8 70.2 0 128.7 55.6 128.7 125.8 0-68.8 57.1-125.8 127.3-125.8 70.2 0 128.7 55.6 128.7 125.8 0-68.8 57.1-125.8 127.3-125.8 70.2 0 127.3 55.6 127.3 125.8 0-68.8 57.1-125.8 128.7-125.8 70.2 0 128.7 55.6 128.7 125.8l-90.7 229.7z"  horiz-adv-x="1024" />

    
    <glyph glyph-name="guanbi" unicode="&#58965;" d="M512 896C229.2 896 0 666.8 0 384s229.2-512 512-512 512 229.2 512 512S794.8 896 512 896z m232.1-702c11.6-11.6 11.6-30.5 0-42.1-5.6-5.6-13.1-8.7-21.1-8.7-8 0-15.4 3.1-21.1 8.7l-190 190-190-190c-5.6-5.6-13.1-8.7-21.1-8.7-8 0-15.4 3.1-21.1 8.7-5.6 5.6-8.7 13.1-8.7 21.1s3.1 15.4 8.7 21.1l190 190-190 190c-5.6 5.6-8.7 13.1-8.7 21.1 0 8 3.1 15.4 8.7 21.1 5.6 5.6 13.1 8.7 21.1 8.7s15.4-3.1 21.1-8.7l190-190 190 190c5.6 5.6 13.1 8.7 21.1 8.7 8 0 15.4-3.1 21.1-8.7 11.6-11.6 11.6-30.5 0-42.2l-190-190 190-190.1z"  horiz-adv-x="1024" />

    
    <glyph glyph-name="guanbi-" unicode="&#58966;" d="M584.43771 385.3l424.5 422.2c20.1 20 20.2 52.3 0.2 72.4C989.13771 900 956.83771 900 936.73771 880.1L512.03771 457.8 91.13771 879.9c-19.9 20-52.4 20-72.5 0.1-20-20-20-52.4-0.1-72.4l420.8-422L15.13771-36.4c-20.1-20-20.2-52.3-0.2-72.4 10-10 23.1-15.1 36.4-15.1 13.1 0 26.1 5 36.2 14.9l424.3 422 424.8-426c10-10.1 23.1-15 36.3-15 13.1 0 26.2 5 36.2 14.9 20 20 20.1 52.3 0.1 72.3L584.43771 385.3z m0 0"  horiz-adv-x="1024" />

    
    <glyph glyph-name="hangchengdingzhi" unicode="&#58967;" d="M930.30556 591.6c-17.1-17.1-29.4-17.1-46.5 0L713.20556 762.1c-17.1 17.2-17.1 29.5 0 46.6L783.00556 878.5c17.2 17.1 44.9 17.1 62.1 0l155-155.1c8.2-8.2 12.9-19.4 12.9-31 0-11.6-4.6-22.8-12.9-31l-69.8-69.8zM874.70556 536L379.80556 41c-8.6-8.5-22.4-8.5-31 0L162.70556 227.2c-8.5 8.5-8.5 22.4 0 31l495 495c8.6 8.5 22.4 8.5 31 0l186.1-186c8.4-8.8 8.4-22.7-0.1-31.2M246.60556 414.9l-69.2 68.5 129.8 130.5-33.7 33.9-130-130.9L81.00556 578.8l130.1 130.9-33.6 33.8L47.10556 612.4 14.20556 645C5.00556 653.8-0.19444 666 0.00556 678.8c0 13.3 4.7 24.6 14.2 33.9L179.50556 876.2c19 18.7 49.5 18.7 68.4 0L480.00556 646.5 249.20556 418c-1-1-1.7-2.1-2.6-3.1M42.90556-94.8l-17.5-6-4.5 4.5 6 17.5 16-16z m9.6 90.9l65.3-65.2-68.7-23.5L29.00556-72.4l23.5 68.5z m8 23.1l71.3 208 217-217.2-207.9-71.3-80.4 80.5z m717.2 332.7l232.1-229.7c9.1-8.9 14.2-21.1 14.2-33.9 0-12.7-5.1-24.9-14.2-33.9l-165.2-163.5c-9.5-9.5-20.9-14.1-34.2-14.1s-24.8 4.7-34.1 14.1l-36.4 35.9 119.8 120.4-33.9 33.8-120-120.7-62.4 61.8 120.1 120.8-33.7 33.8-120.4-121-65.8 65.1c1.2 0.9 234.1 231.1 234.1 231.1"  horiz-adv-x="1024" />

    
    <glyph glyph-name="gengduo" unicode="&#58968;" d="M475.353579 654.723562c0 1.199883 0.09999 2.399766 0.09999 3.599649C475.453569 789.410409 368.763988 896 237.676789 896S0 789.410409 0 658.323211s106.589591-237.676789 237.676789-237.67679h237.67679l-0.09999 232.777268 0.09999 1.299873zM786.22322 420.746411c131.087199 0 237.676789 106.589591 237.67679 237.67679S917.310419 896 786.22322 896 548.446441 789.410409 548.446441 658.323211c0-1.199883 0-2.399766 0.09999-3.599649v-1.299873l-0.09999-232.777268h237.776779zM786.22322 347.353579H548.446441l0.09999-232.777268v-1.299873c0-1.199883-0.09999-2.399766-0.09999-3.599649 0-131.087199 106.589591-237.676789 237.676789-237.676789s237.676789 106.589591 237.67679 237.676789c0.09999 131.087199-106.489601 237.676789-237.5768 237.67679zM237.676789 347.353579C106.589591 347.353579 0 240.763988 0 109.77678 0-21.310419 106.589591-127.90001 237.676789-127.90001s237.676789 106.589591 237.67679 237.67679c0 1.199883 0 2.399766-0.09999 3.599648v1.299873l0.09999 232.777268H237.676789z"  horiz-adv-x="1024" />

    
    <glyph glyph-name="huanyipi" unicode="&#58969;" d="M513.3-63c-128.4 0-249.7 54.8-334.6 150.6l41.9 35.4c74.4-83.5 180.5-131.2 292.7-131.2 38.8 0 77.3 5.8 114.4 17.1C778 54.8 886.1 185.3 903.1 341.5c0.3 3-0.6 6.1-2.7 8.3-2 2.3-4.9 3.6-8 3.6H838l93 123.9 93-123.9h-54.9c-5.6 0-10.2-4.2-10.7-9.8-8-88.1-41.5-171.1-97-240S732-15.8 647.6-42.4C604.1-56 558.9-63 513.3-63zM0 411.4h57.2c5.6 0 10.2 4.3 10.7 9.8 7.1 85.3 38.4 166.4 90.5 234.4 52.4 68.4 122.9 120 204.1 149C411 822.2 461.7 831 513.2 831c65 0 130.4-14.5 189.4-42.1 57.5-26.9 107.6-64.8 149-112.8l-42.3-34.8c-74.6 85.9-181.9 134.9-296 134.9-45.1 0-89.6-7.7-132.2-23-141.7-50.8-242.9-180.3-257.9-330-0.3-3 0.7-6 2.7-8.3 2-2.2 4.9-3.5 8-3.5h52.2L93 287.5 0 411.4z"  horiz-adv-x="1024" />

    
    <glyph glyph-name="huakuai" unicode="&#58970;" d="M745.8 621.2l-467.7 0.2c-14.6 0-26.5-11.8-26.5-26.5 0-14.6 11.8-26.5 26.5-26.5l467.7-0.2c14.6 0 26.5 11.8 26.5 26.5-0.1 14.6-11.9 26.5-26.5 26.5z m0 0M745.8 410.5l-467.7 0.2c-14.6 0-26.5-11.8-26.5-26.5 0-14.6 11.8-26.5 26.5-26.5l467.7-0.2c14.6 0 26.5 11.8 26.5 26.5-0.1 14.6-11.9 26.4-26.5 26.5z m0 0M278.1 199.9c-14.6 0-26.5-11.8-26.5-26.5 0-14.6 11.8-26.5 26.5-26.5l467.7-0.2c14.6 0 26.5 11.8 26.5 26.5 0 14.6-11.8 26.5-26.5 26.5l-467.7 0.2z m0 0M512-128c-69.1 0-136.2 13.5-199.3 40.2C251.7-62 197-25.1 150 22c-47 47-83.9 101.8-109.7 162.7C13.5 247.8 0 314.9 0 384c0 69.1 13.5 136.2 40.2 199.3C66 644.3 102.9 699 150 746c47 47 101.8 83.9 162.7 109.7C375.8 882.5 442.9 896 512 896c69.1 0 136.2-13.5 199.3-40.2C772.3 830 827 793.1 874 746c47-47 83.9-101.8 109.7-162.7 26.7-63.1 40.2-130.2 40.2-199.3 0-69.1-13.5-136.2-40.2-199.3C958 123.7 921.1 69 874 22c-47-47-101.8-83.9-162.7-109.7-63.1-26.8-130.2-40.3-199.3-40.3z m0 975.6c-255.6 0-463.6-208-463.6-463.6 0-255.6 208-463.6 463.6-463.6 255.6 0 463.6 208 463.6 463.6 0 255.6-208 463.6-463.6 463.6z"  horiz-adv-x="1024" />

    
    <glyph glyph-name="jia" unicode="&#58971;" d="M477.9 861.9h68.3v-955.7h-68.3zM512 896c18.8 0 34.1-15.3 34.1-34.1S530.8 827.8 512 827.8c-18.9 0-34.1 15.3-34.1 34.1S493.1 896 512 896z m0-955.7c18.8 0 34.1-15.3 34.1-34.1s-15.3-34.1-34.1-34.1c-18.9 0-34.1 15.3-34.1 34.1s15.2 34.1 34.1 34.1zM34.1 418.1h955.7v-68.3H34.1v68.3z m0 0M989.9 418.1c18.8 0 34.1-15.3 34.1-34.1 0-18.9-15.3-34.1-34.1-34.1-18.9 0-34.1 15.3-34.1 34.1-0.1 18.9 15.2 34.1 34.1 34.1z m-955.8 0c18.8 0 34.1-15.3 34.1-34.1 0-18.9-15.3-34.1-34.1-34.1S0 365.2 0 384c0 18.9 15.3 34.1 34.1 34.1z m0 0"  horiz-adv-x="1024" />

    
    <glyph glyph-name="jiazai" unicode="&#58972;" d="M538.5 629.7c-73.4 0-133.2 59.7-133.2 133.1C405.3 836.2 465 896 538.5 896s133.1-59.7 133.1-133.1c0-73.5-59.7-133.2-133.1-133.2zM255 524c-67.1 0-121.6 54.6-121.6 121.6 0 67.1 54.6 121.6 121.6 121.6 67.1 0 121.6-54.6 121.6-121.6S322 524 255 524zM134.5 248.8c-59.2 0-107.3 48.1-107.3 107.3 0 59.1 48.1 107.2 107.3 107.2 59.1 0 107.2-48.1 107.2-107.2 0-59.2-48.1-107.3-107.2-107.3zM255-23.8c-50.1 0-91 40.8-91 90.9 0 50.2 40.8 91 90.9 91s91-40.8 91-90.9c0-50.2-40.8-91-90.9-91zM538.5-128c-43.8 0-79.4 35.6-79.4 79.4 0 43.8 35.6 79.4 79.4 79.4 43.8 0 79.4-35.6 79.4-79.4 0-43.8-35.6-79.4-79.4-79.4z m287.8 134.3c-35.3 0-64.1 28.8-64.1 64.1 0 35.4 28.8 64.1 64.1 64.1s64.1-28.8 64.1-64.1c0-35.4-28.8-64.1-64.1-64.1zM944.1 303c-29 0-52.6 23.6-52.6 52.6s23.6 52.6 52.6 52.6 52.7-23.6 52.7-52.6-23.7-52.6-52.7-52.6zM785.4 641.7c0-22.6 18.3-40.8 40.8-40.8 22.6 0 40.8 18.3 40.8 40.8 0 22.6-18.3 40.8-40.8 40.8-22.5 0-40.8-18.3-40.8-40.8z m0 0"  horiz-adv-x="1024" />

    
    <glyph glyph-name="jian" unicode="&#58973;" d="M34.1 418.1h955.7v-68.3H34.1zM989.9 418.1c18.8 0 34.1-15.3 34.1-34.1 0-18.9-15.3-34.1-34.1-34.1-18.9 0-34.1 15.3-34.1 34.1-0.1 18.9 15.2 34.1 34.1 34.1z m-955.8 0c18.8 0 34.1-15.3 34.1-34.1 0-18.9-15.3-34.1-34.1-34.1S0 365.1 0 383.9c0 19 15.3 34.2 34.1 34.2z"  horiz-adv-x="1024" />

    
    <glyph glyph-name="jiankong" unicode="&#58974;" d="M893.7 643c-20.9 49.3-50.7 93.6-88.8 131.7-38 38-82.3 67.9-131.7 88.8C622.2 885 567.9 896 512 896c-55.9 0-110.2-11-161.2-32.6-49.3-20.9-93.6-50.7-131.7-88.8-38-38-67.9-82.3-88.8-131.7-21.6-51.1-32.6-105.3-32.6-161.2 0-55.9 11-110.2 32.6-161.2 20.9-49.3 50.7-93.6 88.8-131.7 38-38 82.3-67.9 131.7-88.8 12.1-5.1 24.4-9.6 36.9-13.6l-57.1-141.6H198.3c-20.1 0-36.4-16.3-36.4-36.4 0-20.1 16.3-36.4 36.4-36.4h627.5c20.1 0 36.4 16.3 36.4 36.4 0 20.1-16.3 36.4-36.4 36.4H700l-56.7 143.9c26.3 8.8 51.7 20.2 75.8 34.1 61.8 35.8 113.7 87.2 150 148.7 37.4 63.4 57.1 136.1 57.1 210.1 0 56.1-10.9 110.3-32.5 161.4zM513.5 827.1c28.6 0 51.9-23.3 51.9-51.9s-23.3-51.9-51.9-51.9c-28.6 0-51.9 23.3-51.9 51.9s23.2 51.9 51.9 51.9z m-1.4-649c-128.2 0-232.5 104.3-232.5 232.5s104.3 232.5 232.5 232.5 232.5-104.3 232.5-232.5-104.3-232.5-232.5-232.5zM512 560c-82.4 0-149.5-67-149.5-149.5S429.5 261 512 261c82.4 0 149.5 67 149.5 149.5S594.4 560 512 560z"  horiz-adv-x="1024" />

    
    <glyph glyph-name="jiaotong" unicode="&#58975;" d="M32.9 128c0-51.2 37.7-65.4 72.6-96.7v-102.4c0-31.2 26.1-56.9 58.1-56.9h58c32 0 58.1 25.6 58.1 56.9v56.9h464.6v-56.9c0-31.2 26.1-56.9 58.1-56.9h58c32 0 58.1 25.6 58.1 56.9V31.3c34.9 31.3 72.6 48.4 72.6 96.7V671.1C991.1 870.2 767.5 896 512 896 256.5 896 32.9 870.2 32.9 671.1V128z m217.8-42.7c-49.3 0-87.1 37-87.1 85.4 0 48.3 37.7 85.3 87.1 85.3 49.4 0 87.1-37 87.1-85.3 0-48.4-37.8-85.4-87.1-85.4z m522.6 0c-49.4 0-87.1 37-87.1 85.4 0 48.3 37.7 85.3 87.1 85.3 49.3 0 87.1-37 87.1-85.3 0-48.4-37.7-85.4-87.1-85.4z m87.1 327.2H163.6V696.9h696.8v-284.4z m0 0"  horiz-adv-x="1024" />

    
    <glyph glyph-name="jingdian-" unicode="&#58976;" d="M564.6-75.2l-6.1 24.6s-69 226.2-155.9 404.3C464 525.2 548 753.3 572.8 787.5 613.4 843 728.1 932.9 829.1 628.2c126.4-381.1 194.3-703.4 194.3-703.4H564.6zM750.7 675c-41.2 101-77.8 129.6-117.1 106.6-39.3-23.1-99.1-258.1-99.1-258.1s35.6 29.6 67 32.1c31.4 2.4 74.7-56 74.7-56s24.8 72.2 54.1 69.4c29.4-2.7 78.5-39.1 78.5-39.1s-16.9 44-58.1 145.1zM505.2-75.2L0-73.1S108.1 199.5 140.7 292c32.7 92.5 95.5 236.6 181 103.3C407.1 262 485.1 6.4 485.1 6.4l20.1-81.6z m-204.7 387c-22.3 53.9-41.9 69.1-62.9 56.7-21-12.4-52.4-138.4-52.4-138.4s19 15.9 35.8 17.4c16.8 1.3 40.1-29.8 40.1-29.8s13 38.7 28.7 37.3c15.7-1.3 42.1-20.7 42.1-20.7s-9.1 23.5-31.4 77.5z m0 0"  horiz-adv-x="1024" />

    
    <glyph glyph-name="jingdian" unicode="&#58977;" d="M172.30386-66.2c-16.1 0-29.2 13.1-29.2 29.2s13.1 29.2 29.2 29.2h678.3c16.1 0 29.2-13.1 29.2-29.2s-13.1-29.2-29.2-29.2H172.30386zM79.00386 50.6c-16.1 0-29.2 13.1-29.2 29.2S62.90386 109 79.00386 109h864.8c16 0 29.1-13 29.2-29.1 0-16.2-13.1-29.3-29.2-29.3H79.00386zM28.00386 157.7c-5.3 0-10.4 1.5-14.8 4.2C0.10386 170.1-3.99614 187.5 4.30386 200.6L318.80386 704c5 8 13.6 12.9 23.1 13.2h2.5c8.5-0.5 16.2-4.7 21.2-11.5l43.2-59.5c52.2 114.3 166.5 188 292.5 188 177.2 0 321.3-144.1 321.3-321.3 0-76.8-27.5-151-77.4-209.2l73.5-101.2c9.1-12.5 6.3-30.1-6.2-39.3-4.8-3.5-10.5-5.3-16.5-5.3-9 0-17.5 4.3-22.8 11.6L804.40386 401.7l-130.1-155c-0.8-0.9-1.7-1.8-2.5-2.6-1.1-1.1-2.2-2.1-3.4-3-4.8-3.5-10.5-5.3-16.5-5.3-9 0-17.5 4.3-22.8 11.6L344.50386 639.1 51.90386 170.9c-5.1-8.3-14.1-13.2-23.9-13.2z m625.5 151.7l130.4 155.3c5.3 6.4 13.2 10 21.6 10h1c9 0 17.5-4.3 22.8-11.5L911.00386 350.7c36.3 46.8 55.4 102.8 55.4 162.2 0 146.2-118.9 265.1-265.1 265.1-116.8 0-218.4-74.7-253.1-186l205.3-282.6z"  horiz-adv-x="1024" />

    
    <glyph glyph-name="jingshi1" unicode="&#58978;" d="M983.8 583.3C958 644.2 921 699 874 746c-47 47-101.6 84-162.7 109.8C648.2 882.5 581.1 896 512 896c-69.1 0-136.2-13.5-199.3-40.2C251.8 830 197 793 150 746c-47-47-84-101.6-109.8-162.7C13.5 520.2 0 453.1 0 384c0-69.1 13.5-136.2 40.2-199.3C66 123.8 103 69 150 22c47-47 101.7-83.9 162.7-109.7 63.1-26.7 130.3-40.2 199.3-40.2 69.1 0 136.2 13.5 199.3 40.2C772.2-62 827-25 874 22c47 47 83.9 101.7 109.7 162.7 26.7 63.1 40.2 130.2 40.2 199.3 0.1 69.1-13.4 136.2-40.1 199.3zM557.7 698.8L548 253.2h-69.4L469 698.8h88.7zM552 65.3c-11.1-10.7-24.5-16-40-16s-28.9 5.3-40 16c-11.1 10.7-16.7 24-16.7 39.7 0 15.5 5.6 28.7 16.7 39.4 11.1 10.9 24.5 16.3 40 16.3s28.9-5.4 40-16.3c11.1-10.9 16.7-24 16.7-39.4 0-15.8-5.6-29-16.7-39.7z"  horiz-adv-x="1024" />

    
    <glyph glyph-name="jiudian" unicode="&#58979;" d="M1001.8-5.4h-73.3V457.3c0 27.4-22 49.4-49.5 49.4H763.7c-31.1 0-54.9-23.8-54.9-54.9v-457.1h-49.5V773.5c0 27.4-22 49.3-49.5 49.3H146.6c-27.5 0-49.5-22-49.5-49.3v-780.7H23.8C11-7.2 0-18.2 0-31s11-23.8 23.8-23.8H1000c12.8 0 23.8 11 23.8 23.8 1.8 14.6-9.1 25.6-22 25.6zM344.4 173.9h-97.1v96.9h97.1v-96.9z m0 177.3h-97.1V448h97.1v-96.8z m0 170.1h-97.1v96.9h97.1v-96.9z m168.5-347.4h-97.1v96.9h97.1v-96.9z m0 177.3h-97.1V448h97.1v-96.8z m0 170h-97.1v96.9h97.1v-96.9z"  horiz-adv-x="1024" />

    
    <glyph glyph-name="lixian" unicode="&#58980;" d="M968.2315 337.2c-33.1 38.9-80.2 63.2-131.1 67.6 5.1 36.5 3.9 73-2.6 110.9-24.4 148.8-142.6 263.8-285.4 278.6-93.8 10.8-183.8-20.3-253.3-85.2-65.5-60.9-104.1-146.1-109.3-236.7C74.8315 446.8-4.8685 339.9 0.2315 216.8 5.4315 84.3 115.9315-24 245.8315-24l389.5-4.5 177.4 1.8c111.8 0 204.4 89.3 210.8 201.5 3.9 61-15.4 117.7-55.3 162.4zM709.3315 305c-0.4-0.4-45.7-46.5-91.4-92-94.4-94-97.8-94-102-94-4.2 0-7.6 0-105.6 92.9-46.8 44.3-93.2 89.2-95 91-6.1 5.7-8.6 14.2-6.7 22.3 2 8.1 8.2 14.5 16.2 16.8 2 0.6 4.1 0.9 6.2 0.9 6.2 0 11.9-2.4 16.3-6.7l146.4-140V541.8c0 12.7 10.4 23.1 23.1 23.1s23.1-10.4 23.1-23.1V197l136.8 140.6c4.4 4.4 10.2 6.8 16.4 6.8 2 0 4-0.3 6-0.8 7.9-2.1 14.2-8.4 16.3-16.3 2-7.9-0.3-16.5-6.1-22.3z"  horiz-adv-x="1024" />

    
    <glyph glyph-name="liuyan" unicode="&#58981;" d="M192.8 105.9l-0.9 0.6c-60 42.1-107.1 92.1-139.8 148.4C17.5 314.3 0 379.1 0 447.5c0 119.6 53.2 232 149.9 316.5C246.6 848.7 375.2 895.3 512 895.3s265.4-46.6 362.1-131.2c96.6-84.6 149.9-197 149.9-316.5 0-119.6-53.2-232-149.8-316.5-96.8-84.7-225.4-131.3-362.2-131.3h-86.2l-232.9-127.1V105.9z m60-125.9l174 79.7H512c249.3 0 452.1 174 452.1 387.8 0 103.6-47.1 201.1-132.5 274.3C746.2 795 632.7 835.3 512 835.3c-249.3 0-452.1-174-452.1-387.8 0-127.1 73.9-250.6 192.9-322.6V-20z m516.3 405.4c-34.3 0-62.1 27.9-62.1 62.1 0 34.3 27.9 62.1 62.1 62.1s62.1-27.9 62.1-62.1-27.9-62.1-62.1-62.1z m-257.1 0c-34.3 0-62.1 27.9-62.1 62.1 0 34.3 27.9 62.1 62.1 62.1 34.3 0 62.1-27.9 62.1-62.1s-27.8-62.1-62.1-62.1z m-257.1 0c-34.2 0-62.1 27.9-62.1 62.1 0 34.3 27.9 62.1 62.1 62.1 34.3 0 62.1-27.9 62.1-62.1s-27.8-62.1-62.1-62.1z"  horiz-adv-x="1024" />

    
    <glyph glyph-name="liuyan-" unicode="&#58982;" d="M517.8-126.3c-10 0-18.8 8.6-22.2 12.4L342.2 62.3c-0.5 0.6-1.1 0.8-1.8 0.8h-227C60.3 63.1 3.3 95.9 0 150.7V776.6c1.5 26.2 15.3 55.7 36.7 79C59.4 880.2 87.4 894.3 113.4 894.3h808.9c39.9 0 70.8-32.4 86.3-62.7 9.9-19.3 15.4-40.6 15.4-60v-616c0-27.5-10.5-51-30.3-68-18.5-15.8-43.8-24.5-71.3-24.5h-227c-0.7 0-1.3-0.3-1.8-0.8l-153.5-175.1c-5.7-6.2-14.1-13.5-22.3-13.5zM113.4 834.9c-11.1 0-24.3-8.3-36.1-22.8-10.9-13.4-18-29.3-18-40.4v-616c0-26.2 35.4-33.1 54.1-33.1h241.3c8.3 0 16.6-7.4 22.2-13.6L516-50c0.5-0.6 1.1-0.8 1.8-0.8s1.3 0.3 1.8 0.8l139.2 157.8c4.3 4.8 13.3 14.8 22.1 14.8h241.4c27.2 0 42.2 11.7 42.2 33.1v616c0 22.2-17.4 63.2-42.2 63.2H113.4z m108.9-482.4c-16.4 0-29.7 13.3-29.7 29.7s13.3 29.7 29.7 29.7h305.5c16.4 0 29.7-13.3 29.7-29.7s-13.3-29.7-29.7-29.7H222.3z m0 225.1c-16.4 0-29.7 13.3-29.7 29.7s13.3 29.7 29.7 29.7h598.9c16.4 0 29.7-13.3 29.7-29.7s-13.3-29.7-29.7-29.7H222.3z"  horiz-adv-x="1024" />

    
    <glyph glyph-name="luyin" unicode="&#58983;" d="M866.5 462.8V384c0-90.7-30.3-169.5-90.8-236.6S640.4 41.8 551.4 32v-81.2h157.5c10.7 0 19.9-3.9 27.7-11.7 7.8-7.8 11.7-17 11.7-27.7s-3.9-19.9-11.7-27.7c-7.8-7.8-17-11.7-27.7-11.7H315.1c-10.7 0-19.9 3.9-27.7 11.7-7.8 7.8-11.7 17-11.7 27.7s3.9 19.9 11.7 27.7c7.8 7.8 17 11.7 27.7 11.7h157.5V32c-89 9.8-163.8 48.3-224.3 115.4S157.5 293.3 157.5 384v78.8c0 10.7 3.9 19.9 11.7 27.7 7.8 7.8 17 11.7 27.7 11.7s19.9-3.9 27.7-11.7c7.8-7.8 11.7-17 11.7-27.7V384c0-75.9 27-140.8 80.9-194.8 53.9-54 118.9-80.9 194.8-80.9s140.8 27 194.8 80.9c53.9 53.9 80.9 118.9 80.9 194.8v78.8c0 10.7 3.9 19.9 11.7 27.7 7.8 7.8 17 11.7 27.7 11.7s19.9-3.9 27.7-11.7c7.8-7.8 11.7-17.1 11.7-27.7M708.9 699.1V384c0-54.2-19.3-100.5-57.8-139.1-38.6-38.6-84.9-57.8-139.1-57.8-54.2 0-100.5 19.3-139.1 57.8-38.6 38.6-57.8 84.9-57.8 139.1V699.1c0 54.2 19.3 100.5 57.8 139.1C411.5 876.7 457.8 896 512 896c54.2 0 100.5-19.3 139.1-57.8 38.5-38.6 57.8-85 57.8-139.1"  horiz-adv-x="1024" />

    
    <glyph glyph-name="lvyoujiaotong" unicode="&#58984;" d="M174.4-14.6c-87.2 0-158.2 71-158.2 158.2V660.5C16.2 790.4 121.8 896 251.7 896h523.1c128.5 0 233-104.5 233-233v-519.4c0-87.2-71-158.2-158.2-158.2H174.4z m77.3 861.7c-102.9 0-186.6-83.7-186.6-186.6v-516.9c0-60.3 49-109.3 109.3-109.3h675.2c60.3 0 109.3 49 109.3 109.3V663c0 101.6-82.6 184.2-184.2 184.2h-523zM280.3-128c-52.2 0-94.7 42.5-94.7 94.7v45.4h48.9v-45.4c0-25.3 20.6-45.8 45.9-45.8s45.9 20.6 45.9 45.8v45.4h48.9v-45.4c-0.1-52.2-42.6-94.7-94.9-94.7zM764.9-128c-52.2 0-94.7 42.5-94.7 94.7v45.4h48.9v-45.4c0-25.3 20.6-45.8 45.9-45.8 25.3 0 45.9 20.6 45.9 45.8v45.4h48.9v-45.4c-0.1-52.2-42.6-94.7-94.9-94.7zM434.5 756.4c-28.7 0-52 23.3-52 52V878.8h48.9v-70.4c0-1.7 1.5-3.1 3.1-3.1h154.9c1.7 0 3.1 1.5 3.1 3.1V878.8h48.9v-70.4c0-28.7-23.3-52-52-52H434.5zM38.3 380.9h947.4V332H38.3zM195.1 228.3c-13.5 0-24.4 11-24.4 24.4 0 13.5 11 24.4 24.4 24.4h124.1c13.5 0 24.4-11 24.4-24.4 0-13.5-11-24.4-24.4-24.4H195.1zM711.1 228.3c-13.5 0-24.4 11-24.4 24.4 0 13.5 11 24.4 24.4 24.4h124.1c13.5 0 24.4-11 24.4-24.4 0-13.5-11-24.4-24.4-24.4H711.1z"  horiz-adv-x="1024" />

    
    <glyph glyph-name="lvyouzhishu" unicode="&#58985;" d="M980.40865-113.8c-13.9 0-25.1 11.3-25.1 25.1V398.6c0 13.9 11.3 25.1 25.1 25.1s25.1-11.3 25.1-25.1v-487.2c0.1-13.9-11.2-25.2-25.1-25.2zM703.10865-113.8c-13.9 0-25.1 11.3-25.1 25.1v395c0 13.9 11.3 25.1 25.1 25.1 13.9 0 25.1-11.3 25.1-25.1v-395c0-13.8-11.3-25.1-25.1-25.1zM402.30865-113.8c-13.9 0-25.1 11.3-25.1 25.1V215.8c0 13.9 11.3 25.1 25.1 25.1 13.9 0 25.1-11.3 25.1-25.1v-304.4c0-13.9-11.3-25.2-25.1-25.2zM134.90865-113.8c-13.9 0-25.1 11.3-25.1 25.1V108.9c0 13.9 11.3 25.1 25.1 25.1s25.1-11.3 25.1-25.1v-197.5c0.1-13.9-11.2-25.2-25.1-25.2zM25.10865 154.9c-7.2 0-14 3.1-18.8 8.5-9.2 10.4-8.2 26.3 2.1 35.5L401.00865 546.7 549.90865 434l249 237.6c4.7 4.5 10.9 6.9 17.4 6.9 6.9 0 13.5-2.8 18.2-7.8 4.6-4.9 7.1-11.2 6.9-17.9-0.2-6.7-2.9-13-7.8-17.6l-279.9-267-150.2 113.6L41.80865 161.2c-4.6-4.1-10.5-6.3-16.7-6.3zM913.30865 543.4c-11.8 0-22.9 4.6-31.3 13L699.10865 738.2c-11.4 11.3-15.8 27.4-11.7 42.9 4.1 15.6 15.9 27.4 31.4 31.6l248.9 67.5c3.7 1 7.5 1.5 11.4 1.5 13.9 0 27.2-6.5 35.6-17.4 8.5-11 11.3-25.1 7.7-38.5l-66.1-249.3c-5.1-19.5-22.8-33.1-43-33.1zM741.60865 766.9L910.40865 599l61 230.2-229.8-62.3z"  horiz-adv-x="1024" />

    
    <glyph glyph-name="mulu" unicode="&#58986;" d="M30.2-124.8c-16.7 0-30.2 13.6-30.2 30.2 0 16.7 13.6 30.2 30.2 30.2H992c16.7 0 30.2-13.6 30.2-30.2 0-16.7-13.6-30.2-30.2-30.2H30.2zM30.7 356.2C14 356.2 0.5 369.8 0.5 386.4c0 16.7 13.6 30.2 30.2 30.2h961.8c16.7 0 30.2-13.6 30.2-30.2 0-16.7-13.6-30.2-30.2-30.2H30.7zM31.9 832.3c-16.7 0-30.2 13.6-30.2 30.2S15.2 892.8 31.9 892.8h961.8c16.7 0 30.2-13.6 30.2-30.2s-13.6-30.2-30.2-30.2H31.9z"  horiz-adv-x="1024" />

    
    <glyph glyph-name="mima" unicode="&#58987;" d="M229.2-128c-79.6 0-144.4 64.8-144.4 144.5V387.8c0 36.6 13.7 71.5 38.7 98.4 24.1 25.9 56.6 42 91.5 45.5v75.2C216.3 766.3 348.5 896 509.7 896c160.7 0 292.9-129.2 294.6-288.1V532c36-2.3 69.5-18 94.6-44.2 25.9-27.1 40.2-62.6 40.2-100v-371.3c0-79.7-64.8-144.5-144.5-144.5H229.2z m-10.8 611.5c-45.9 0-81.5-51.4-81.5-95.7v-371.3c0-21.4 10.7-44.2 29.3-62.6s41.6-28.9 63-28.9h565.5c45.9 0 94.4 47 94.4 91.4V387.8c0 46.2-61.8 95.7-105.2 95.7H218.4z m530.4 50.2v73.6C747.5 730.1 634.9 838 507.8 838c-127.6 0-236.2-106-237.2-231.4v-72.9h478.2zM467.4 28.6c-17.3 0-31.4 14.1-31.4 31.4V176.3c-29.2 22.5-46.6 57.4-46.6 93.7 0 65.7 54 119.1 120.4 119.1 66.3 0 120.2-53.4 120.2-119 0-36.8-16.9-70.9-46.5-93.7v-116.2c0-17.3-14.1-31.4-31.5-31.4h-84.6z m64.1 47.4V180.2c0 13.7 7.5 26.3 19.6 32.9 19.4 10.5 28.9 30 29.1 59.7 0 37.6-31.3 68.3-69.8 68.3s-69.8-30.6-69.8-68.3c0-28.9 10-49 29.8-59.6 12.1-6.5 19.6-19.1 19.6-32.9V76h41.5z"  horiz-adv-x="1024" />

    
    <glyph glyph-name="nv" unicode="&#58988;" d="M512-128c-20.1 0-32.6 12.5-32.6 32.6V11H341.8c-20.1 0-32.6 12.5-32.6 32.6s12.5 32.6 32.6 32.6h137.6v77.1l-8.9 1c-90.6 10.1-174.3 52.9-235.7 120.7-61.7 68.2-95.8 156.3-95.8 248 0 100.2 38.6 194.1 108.8 264.2C317.9 857.4 411.8 896 512 896c100.2 0 194.1-38.6 264.2-108.8C846.3 717.1 885 623.3 885 523c0-91.7-34-179.8-95.8-248.1-61.4-67.8-145.1-110.6-235.7-120.7l-8.9-1v-77.1h137.6c20.1 0 32.6-12.5 32.6-32.6s-12.5-32.6-32.6-32.6H544.6v-106.5c0-19.9-12.5-32.4-32.6-32.4z m0 958.8c-172.6 0-307.8-135.2-307.8-307.8 0-172.6 135.2-307.8 307.8-307.8 172.6 0 307.8 135.2 307.8 307.8 0 172.6-135.2 307.8-307.8 307.8z"  horiz-adv-x="1024" />

    
    <glyph glyph-name="nan" unicode="&#58989;" d="M415.7-128c-55.9 0-110.2 11-161.4 32.8-49.5 21-94 51-132.2 89.3-38.3 38.3-68.3 82.7-89.3 132.2C11 177.5 0 231.8 0 287.7c0 110.9 43.1 215.1 121.4 293.7 78.5 78.7 183 122 294.3 122 93.5 0 181-29.6 253.2-85.5l17.5-13.5 227 227H690.8V896H1024v-333.2h-64.7V785.3L732.6 558.6l13.1-17.4c56.1-74.8 85.7-162.4 85.7-253.5 0-55.9-11-110.2-32.8-161.4-21-49.5-51-94-89.3-132.2-38.3-38.3-82.7-68.3-132.2-89.3-51.2-21.8-105.5-32.8-161.4-32.8z m1.8 768.6c-193.6 0-351-157.5-351-351 0-193.6 157.5-351 351-351 193.6 0 351 157.5 351 351 0.1 193.5-157.4 351-351 351z"  horiz-adv-x="1024" />

    
    <glyph glyph-name="qianbao" unicode="&#58990;" d="M975.6 5.9c0-73-58-133.9-127.6-133.9H252.7c-13.2 0-26 2.1-38.3 6.3-42 6-169.1 37.3-214.4 200.6 0 13.9 0 29.9 0.2 47.5-0.1 3.4-0.1 7.1-0.1 10.8V762.1C0.1 835.1 58.1 896 127.7 896h595.3c47.3 0 89.5-28.4 111.3-69.6-18.3 11-39.3 17.1-61.3 17.1H177.7c-31.5 0-82.3-14.7-83.3-33.1 1-26 23-45.7 114.3-45.7h639.3c69.5 0 127.6-60.9 127.6-133.9v-128.7H547.4c-117.3 0-150.1-82.2-150.1-183.8 0-101.6 29.5-182.2 146.8-183.8h431.5v-128.6zM988.1 449.6H537.9c-45.3 0-87.5-58.8-87.5-131.3 0-72.5 42.3-131.3 87.5-131.3H988.1c21 0 36.8 21.3 36 39.4V408.7c0.7 17.8-15 40.9-36 40.9zM609.9 237.2c-41.3 0-79.6 36.8-79.6 80.3 0 43.6 36.5 81.9 78 81.9s78-38.3 78-81.9c0.1-43.5-34.9-80.3-76.4-80.3z"  horiz-adv-x="1024" />

    
    <glyph glyph-name="sanjiaoxing-xia" unicode="&#58991;" d="M960.20806 714.5H61.70806c-52.2 0-81-62.7-47-101.9l449.2-535.4c26.1-28.7 70.5-28.7 96.6 0l446.6 535.4c36.7 41.8 5.3 101.9-46.9 101.9z m0 0"  horiz-adv-x="1024" />

    
    <glyph glyph-name="sanjiaoxing-shang" unicode="&#58992;" d="M63.8 53.5h898.5c52.2 0 81 62.7 47 101.9L560.1 690.8c-26.1 28.7-70.5 28.7-96.6 0L16.8 155.4c-36.6-41.8-5.2-101.9 47-101.9z m0 0"  horiz-adv-x="1024" />

    
    <glyph glyph-name="rili" unicode="&#58993;" d="M140.5-127.4C63-127.4 0-64.4 0 13.1V606.5C0 684 63 747.1 140.5 747.1h156.2V865.6c0 16.5 13.4 29.9 29.8 29.9 16.5 0 29.9-13.4 29.9-29.9v-118.5h311.2V865.6C667.6 882.1 681 895.5 697.4 895.5c16.5 0 29.9-13.4 29.9-29.9v-118.5h156.2c77.5 0 140.5-63 140.5-140.5v-593.4c0-77.5-63-140.5-140.5-140.5h-743z m1.2 814.8c-45.2 0-82-36.8-82-82v-592.3c0-45.2 36.8-82 82-82h740.6c45.2 0 82 36.8 82 82V605.4c0 45.2-36.8 82-82 82h-155v-118.5c0-16.5-13.4-29.9-29.9-29.9s-29.8 13.4-29.8 29.9V687.4H356.4v-118.5c0-16.5-13.4-29.9-29.9-29.9s-29.8 13.4-29.8 29.9V687.4h-155zM239 95.1c-16.6 0-30.1 13.5-30.1 30.1s13.5 30.1 30.1 30.1h546c16.6 0 30.1-13.5 30.1-30.1s-13.5-30.1-30.1-30.1H239z m0 220c-16.6 0-30.1 13.5-30.1 30.1s13.5 30.1 30.1 30.1h546c16.6 0 30.1-13.5 30.1-30.1s-13.5-30.1-30.1-30.1H239z"  horiz-adv-x="1024" />

    
    <glyph glyph-name="shanchu" unicode="&#58994;" d="M234-128c-48.3 0-87.7 39.3-87.7 87.7V603.5c0 16.1 13.1 29.2 29.2 29.2s29.2-13.1 29.2-29.2V-11c0-32.3 26.3-58.6 58.6-58.6h497.5c32.3 0 58.6 26.3 58.6 58.6V603.5c0 16.1 13.1 29.2 29.2 29.2s29.2-13.1 29.2-29.2v-643.8c0-48.3-39.3-87.7-87.7-87.7H234z m380.4 175.6c-16.1 0-29.2 13.1-29.2 29.2V574.2c0 16.1 13.1 29.2 29.2 29.2s29.2-13.1 29.2-29.2v-497.5c0-16-13.1-29.1-29.2-29.1z m-204.8 0c-16.1 0-29.2 13.1-29.2 29.2V574.2c0 16.1 13.1 29.2 29.2 29.2s29.2-13.1 29.2-29.2v-497.5c-0.1-16-13.1-29.1-29.2-29.1z m-351.2 673c-16.1 0-29.2 13.1-29.2 29.2S42.3 779 58.4 779h907.2c16.1 0 29.2-13.1 29.2-29.2s-13.1-29.2-29.2-29.2H58.4zM351.1 837.7c-16.1 0-29.2 13.1-29.2 29.2 0 16 13.1 29.1 29.2 29.1H673c16.1 0 29.2-13.1 29.2-29.2S689.1 837.6 673 837.6H351.1z"  horiz-adv-x="1024" />

    
    <glyph glyph-name="shangyige" unicode="&#58995;" d="M809.12063 877.931287c88.676312 51.2863 196.247577-12.696608 196.247577-115.269209v-756.098024c0-102.5726-107.971158-166.555508-196.747443-115.269208l-651.825878 377.999025C68.118574 320.580171 67.318787 448.645961 155.995099 499.832288L809.12063 877.931287zM188.986286 442.947483c-44.688063-25.79311-44.288169-90.575805 0.89976-116.668834l651.725905-377.999025c44.488116-25.693137 97.973828 5.998398 97.973828 58.28443V762.662078c0 52.386006-53.085819 83.977567-97.573935 58.284431L188.986286 442.947483z m0 0M18.631793 878.03126h65.782428v-986.836388H18.631793z"  horiz-adv-x="1024" />

    
    <glyph glyph-name="shezhi" unicode="&#58996;" d="M900.862025 333.854897c2.099795 16.398399 3.699639 32.796797 3.699639 50.195098 0 17.398301-1.599844 33.7967-3.699639 50.195098l110.38922 84.491749c9.899033 7.699248 12.59877 21.497901 6.299385 32.796797L912.860853 728.616346c-6.299385 11.298897-20.398008 15.398496-31.896885 11.298897l-130.287276-51.195001c-27.197344 20.497998-56.494483 37.396348-88.391368 50.195098L642.387267 874.502099C640.787423 886.800898 629.888487 896 616.789767 896H407.510204c-13.098721 0-24.097647-9.199102-25.5975-21.497901L362.014647 738.81535c-31.896885-12.79875-61.194024-30.197051-88.391368-50.195098l-130.287277 51.195c-11.998828 4.599551-25.5975 0-31.896885-11.298896L6.649351 551.433649c-6.799336-11.298897-3.699639-25.097549 6.299384-32.796797l110.38922-84.491749c-2.099795-16.398399-3.699639-33.296748-3.699638-50.195098 0-16.89835 1.599844-33.7967 3.699638-50.195098L12.948735 249.463138C3.049702 241.76389 0.349966 227.965238 6.649351 216.666341l104.689776-177.182697c6.299385-11.298897 20.398008-15.398496 31.896885-11.298896l130.287277 51.195c27.197344-20.497998 56.494483-37.396348 88.391368-50.195098l19.898057-135.686749c1.599844-12.298799 12.59877-21.497901 25.5975-21.497901h209.279562c13.098721 0 24.097647 9.199102 25.597501 21.497901l19.898056 135.686749c31.896885 12.79875 61.194024 30.197051 88.391368 50.195098L880.963968 28.284738c11.998828-4.599551 25.5975 0 31.896885 11.298896l104.689777 177.182697c6.299385 11.298897 3.699639 25.097549-6.299385 32.796798l-110.38922 84.291768z m-388.762035-128.987404c-100.990138 0-183.082121 80.392149-183.082121 179.182502s82.191973 179.182502 183.082121 179.182502c100.990138 0 183.082121-80.392149 183.082121-179.182502 0.09999-98.790353-82.091983-179.182502-183.082121-179.182502z"  horiz-adv-x="1024" />

    
    <glyph glyph-name="shizhong" unicode="&#58997;" d="M512-128c-264.5 0-479.8 215.2-479.8 479.8 0 122.3 46.3 238.8 130.3 328 83.6 88.7 196.4 142 317.5 150.1l3.7 0.2V867.7C483.7 883.3 496.4 896 512 896c15.6 0 28.3-12.7 28.3-28.3v-37.6l3.7-0.2c97.6-6.5 189.6-42 266.1-102.8l2.8-2.2 33.9 33.9c2.7 2.7 6.1 4.8 10.2 6.4l5.7 2.1-48.2 48.2c-5.3 5.3-8.3 12.5-8.3 20s2.9 14.7 8.3 20c5.3 5.3 12.5 8.3 20 8.3 7.6 0 14.7-2.9 20-8.3l129-129c11-11 11-29 0-40-5.3-5.3-12.5-8.3-20-8.3-7.6 0-14.7 2.9-20 8.3l-48.2 48.2-2.1-5.7c-1.5-4.1-3.6-7.5-6.4-10.2l-32-32 2.7-2.8c86.7-90 134.4-208 134.4-332.1C991.8 87.2 776.5-128 512-128z m0 902.9c-233.3 0-423.1-189.8-423.1-423.1S278.7-71.3 512-71.3s423.1 189.8 423.1 423.1S745.3 774.9 512 774.9z m0-515.9c-51.2 0-92.8 41.6-92.8 92.8 0 38.9 24.9 73.9 61.9 87.1l2.6 0.9V674.2c0 15.6 12.7 28.3 28.3 28.3 15.6 0 28.3-12.7 28.3-28.3v-234.5l2.6-0.9c37-13.2 61.9-48.2 61.9-87.1 0-51.1-41.6-92.7-92.8-92.7z m-36.2 56.6h72.4V388h-72.4v-72.4z"  horiz-adv-x="1024" />

    
    <glyph glyph-name="shezhi-xianxing" unicode="&#58998;" d="M512 208.4c-96.7 0.1-175.5 78.9-175.6 175.6 0.2 96.7 78.9 175.4 175.6 175.6 96.8-0.1 175.6-78.8 175.7-175.6-0.1-46.1-17.9-89.6-50.2-122.7-32.3-33-75.3-51.8-121.2-52.9H512z m-2.6 295.8l-4.5-0.3c-63.4-3.7-113-56.4-113-119.9 0-66.3 53.9-120.2 120.1-120.2 66.3 0 120.2 53.9 120.2 120.2 0 66.3-53.9 120.2-120.2 120.2h-2.6zM666.3-99.4v2.3-2.3h-0.5c-17.4 0-34.2 7.2-46.2 19.8-16.3 17.9-67.6 64.1-110.3 64.1-42.3 0-93.3-45.2-109.4-62.6-12.2-12.7-28.5-19.6-45.9-19.6-8.5 0-16.9 1.7-24.9 4.9l-0.3 0.1-126 70.4-1.5 1.1c-22.3 16-30.2 44.9-19.3 70.2 1.9 4.7 11.8 29.5 11.8 52.1-0.1 75.1-61.3 136.3-136.4 136.3H52c-19.9 0-36.1 17.8-41.3 45.4l-0.4 2.1C3.7 323.2 0 358.2 0 383.6c0 40.6 8.9 90.7 10.7 100.4 5.3 28 21.4 45.5 42.1 45.7h4.6c75.1 0.1 136.3 61.3 136.3 136.4 0 22.3-9.2 45.8-11.4 51l-0.5 1.2c-10.7 24.9-2.4 54.3 19.6 69.9l0.2 0.2 133.8 73.7 1.3 0.6c7.9 3.1 16 4.7 24.3 4.7 17.4 0 33.6-6.7 45.9-19 16-16.8 66.5-60.4 107.9-60.4 41 0 91.1 42.6 106.9 59 12.2 12.1 28.9 19 45.9 19 8.2 0 16.2-1.6 23.8-4.6l0.3-0.1 129.6-72 1.4-0.9c22-15.8 30.2-45.3 19.5-70.2-1.2-2.8-11.8-28.5-11.8-52 0.1-75.1 61.3-136.3 136.4-136.4h4.6c20.3 0 36.8-18 42-45.9 1.8-9.7 10.7-60.1 10.7-100.2 0-40.2-8.9-90.7-10.7-100.4-5.2-27.8-21.6-45.8-41.6-45.8h-5c-75.1-0.1-136.3-61.2-136.4-136.3 0-22.8 9.9-47.5 11.9-52.3 10.7-24.8 2.5-54.2-19.4-69.9l-0.2-0.2L691-94l-1.4-0.6c-7.4-3.1-15.1-4.7-22.9-4.7h-0.4z m-4.9 56.7c1.5-0.8 3.2-1.2 4.9-1.2h0.8l124.9 69-0.9 2.1c-2.7 6.3-16.2 39.7-16.2 73.7 0.1 102 80 186.2 181.8 191.6l2 0.1 0.4 2c2.2 12.5 9.6 55.9 9.6 88.8 0 33-7.3 76.3-9.6 88.8l-0.4 2-2 0.1C854.8 480 775 564.1 774.9 666.1c0 34.1 13.5 67.5 16.2 73.8l0.9 2.1-122 67.9-1 0.4h-1c-1.7 0-4.2-0.4-6.8-2.3-2.5-2.5-19.5-19.7-43.8-36.7-36.7-25.8-71.2-38.8-102.7-38.8-31.9 0-66.7 13.3-103.5 39.6-15.7 11.1-30.5 23.8-44.1 37.5l-1.1 0.8c-1.7 0.9-3.8 1.4-6.4 1.4h-0.5L232 742l0.9-2.2c2.7-6.3 16.3-39.3 16.3-73.7-0.1-102-80-186.2-181.8-191.6l-2.1-0.1-0.4-2c-2.2-12.6-9.5-56.1-9.5-88.8 0-33 7.3-76.3 9.5-88.8l0.4-2 2-0.1c101.8-5.5 181.7-89.6 181.8-191.6 0-34.3-13.6-67.6-16.3-73.9l-0.8-2.2 120.5-67.4h0.5c2 0 3.8 0.4 5.2 1.1l1.3 1c3.8 4.1 20.7 21.6 44.5 39.1 37.4 27.4 72.9 41.2 105.4 41.2 32.7 0 68.4-14.1 106.1-42 24.7-18.4 41.8-36.6 44.7-39.7l1.2-1z"  horiz-adv-x="1024" />

    
    <glyph glyph-name="shipin" unicode="&#58999;" d="M107.6 4.3C48.3 4.3 0 52.5 0 111.9V656.1c0 59.3 48.3 107.6 107.6 107.6h599c59.3 0 107.6-48.3 107.6-107.6v-154.2l167.3 131.7 0.2 0.1c4.4 2.8 9.6 4.4 14.8 4.4 4.6 0 9.1-1.2 13.2-3.4 8.8-4.8 14.3-14.1 14.3-24.1v-479c0-10.1-5.5-19.4-14.4-24.2-4-2.2-8.5-3.3-13-3.3-5.4 0-10.6 1.5-15 4.5l-0.2 0.2-167 134.7V112c0-59.3-48.3-107.6-107.6-107.6H107.6z m0 704.4c-29 0-52.6-23.6-52.6-52.6v-544.3c0-29 23.6-52.6 52.6-52.6h599c29 0 52.6 23.6 52.6 52.6V290.7c-0.4 1.8-0.5 3.6-0.5 5.4V449.6c0 1.8 0.2 3.7 0.5 5.4V656.1c0 29-23.6 52.6-52.6 52.6h-599zM969 183.5V559.2l-154.8-124v-124.9L969 183.5zM302.7 239c-8.8 0-16.3 4.2-20.7 11.5l-0.3 0.5c-2.4 4.7-2.4 9.2-2.4 12.7V505c0 6 3 12.3 7.7 16 0.5 0.8 1.2 1.5 1.9 2.1 1.1 1.4 2.7 2.5 4.4 3.1 3.2 1.9 6.6 2.8 10 2.8 3.8 0 7.5-1.2 11-3.4l210.5-121.2c3.4-1.7 8.3-4.2 11-9.6l0.2-0.5v-0.1c4.8-12.1 1-25-9.4-31.2L313.7 241.3l-0.5-0.2c-3.3-1.4-7-2.1-10.5-2.1z m23.2 63l142.5 81.6-142.5 81.6V302z"  horiz-adv-x="1024" />

    
    <glyph glyph-name="shijian" unicode="&#59000;" d="M512-128c-136.8 0-265.4 53.2-362.1 149.9C53.2 118.6 0 247.2 0 384s53.3 265.4 150 362C246.8 842.7 375.4 896 512.1 896c136.7 0 265.3-53.2 362.2-149.9 199.6-199.6 199.6-524.5 0-724.1-96.8-96.7-225.5-150-362.3-150z m0.1 965c-121 0-234.8-47.1-320.4-132.6C106.1 618.8 59 505 59 384c0-121.1 47.1-234.9 132.6-320.4C277.2-22 391-69.1 512-69.1c121.1 0 234.9 47.2 320.6 132.8 176.6 176.6 176.6 464 0 640.7C747 789.9 633.2 837 512.1 837zM720.7 188.7c-4.9 0-9.8 1.4-14.6 4.1L528.4 300.5c-0.9 0.5-1.9 1.1-3 1.7-7.5 4.1-11 6.5-12.3 8.2l-0.1 0.2-1.5 2.2-2.4 1.4c-16.9 9.6-27 19.6-27 26.8V642.1c0 17.4 14.2 31.6 31.6 31.6 17.4 0 31.6-14.2 31.6-31.6v-288l184.1-106.5c14.7-8.5 24.4-27.8 15.6-43.1-5.7-10.1-14.6-15.8-24.3-15.8z"  horiz-adv-x="1024" />

    
    <glyph glyph-name="shoucang1" unicode="&#59001;" d="M512.20147 896c-29.9 0-56.6-17.4-69.8-45.5L338.90147 631.9c-7.8-17-23.5-28.8-41.9-31.6l-231-35c-29-4.4-52.2-24.3-61.7-53.1-9.8-29.6-2.6-61.5 19-83.5l167.5-169.5c13.3-13.8 19.4-33.4 16.1-52.5l-39.6-240.2c-3.8-24.2 3-48.3 18.4-66.5 15.1-17.6 36.6-27.1 58.4-27.1 12.2 0 24.4 3 35.8 9.1l206.4 113.5c8 4.3 16.8 6.5 25.7 6.5 8.9 0 17.8-2.2 25.7-6.5l207-114c11.4-6.2 23.6-9.4 36.1-9.4 22.3 0 43.7 10.1 58.7 27.8 15.3 18.1 21.8 42.2 17.8 66.2l-39.6 240.2c-3.3 19 2.8 38.7 16 52.4l166.9 170.6c21.5 21.9 28.8 53.9 19 83.5-9.5 28.9-32.6 48.7-61.7 53.1l-230.9 35c-18.4 2.9-34.1 14.7-42 31.8L581.60147 851.1C568.50147 878.8 541.80147 896 512.20147 896z"  horiz-adv-x="1024" />

    
    <glyph glyph-name="shijingzhanbo" unicode="&#59002;" d="M442.6 285.8c-27.1 0-49.2 22.1-49.2 49.2V575.4c0 27.1 22.1 49.2 49.2 49.2 7.6 0 15-1.8 21.9-5.2l241.2-120.2c16.8-8.4 27.2-25.2 27.2-44s-10.4-35.6-27.2-44L464.6 291c-7-3.5-14.3-5.2-22-5.2z m0.7 50.4l238.8 119.1-238.8 119v-238.1zM111.3 77.7C49.9 77.7 0 127.6 0 188.9V721.6C0 782.9 49.9 832.8 111.3 832.8h801.5c61.3 0 111.2-49.9 111.2-111.2V189c0-61.3-49.9-111.2-111.2-111.2H111.3z m0 705.2c-33.8 0-61.3-27.5-61.3-61.3V189c0-33.8 27.5-61.3 61.3-61.3h801.5c33.8 0 61.3 27.5 61.3 61.3V721.6c0 33.8-27.5 61.3-61.3 61.3H111.3zM136.6-64.8c-13.8 0-25 11.2-25 25s11.2 25 25 25h750.8c13.8 0 25-11.2 25-25s-11.2-25-25-25H136.6z"  horiz-adv-x="1024" />

    
    <glyph glyph-name="shuaxin" unicode="&#59003;" d="M512 640.6c-27.1 0-49.3 22.2-49.3 49.3V846.7C462.7 873.8 484.9 896 512 896c27.1 0 49.3-22.2 49.3-49.3v-156.8c0-27.1-22.2-49.3-49.3-49.3zM383 606.1c-23.5-13.6-53.8-5.4-67.3 18l-78.4 135.8c-13.6 23.5-5.4 53.8 18 67.3 23.5 13.6 53.8 5.4 67.3-18L401 673.4c13.6-23.4 5.5-53.7-18-67.3zM289.6 512.7c-13.6-23.5-43.8-31.6-67.3-18L86.5 573.1c-23.5 13.6-31.6 43.8-18 67.3 13.6 23.5 43.8 31.6 67.3 18L271.6 580c23.5-13.5 31.6-43.8 18-67.3zM255.4 384c0-27.1-22.2-49.3-49.3-49.3H49.3C22.2 334.7 0 356.9 0 384c0 27.1 22.2 49.3 49.3 49.3h156.8c27.1 0 49.3-22.2 49.3-49.3zM291.2 256.6c13.6-23.5 5.4-53.8-18-67.3l-135.8-78.4c-23.5-13.6-53.8-5.4-67.3 18-13.6 23.5-5.4 53.8 18 67.3l135.8 78.4c23.5 13.6 53.8 5.5 67.3-18zM384.6 161.9c23.5-13.6 31.6-43.8 18-67.3l-78.4-135.8c-13.6-23.5-43.8-31.6-67.3-18-23.5 13.6-31.6 43.8-18 67.3l78.4 135.8c13.5 23.4 43.8 31.5 67.3 18zM512 127.4c27.1 0 49.3-22.2 49.3-49.3v-156.8c0-27.1-22.2-49.3-49.3-49.3-27.1 0-49.3 22.2-49.3 49.3V78.1c0 27.1 22.2 49.3 49.3 49.3zM641 160.3c23.5 13.6 53.8 5.4 67.3-18l78.4-135.8c13.6-23.5 5.4-53.8-18-67.3-23.5-13.6-53.8-5.4-67.3 18L622.9 93c-13.5 23.5-5.4 53.8 18.1 67.3zM733.3 256.6c13.6 23.5 43.8 31.6 67.3 18l135.8-78.4c23.5-13.6 31.6-43.8 18-67.3-13.6-23.5-43.8-31.6-67.3-18l-135.8 78.4c-23.4 13.5-31.5 43.8-18 67.3zM640.2 606.1c-23.5 13.6-31.6 43.8-18 67.3l78.4 135.8c13.6 23.5 43.8 31.6 67.3 18 23.5-13.6 31.6-43.8 18-67.3l-78.4-135.8c-13.6-23.4-43.8-31.5-67.3-18zM736.2 512.7c-13.6 23.5-5.4 53.8 18 67.3L890 658.4c23.5 13.6 53.8 5.4 67.3-18 13.6-23.5 5.4-53.8-18-67.3l-135.8-78.4c-23.4-13.6-53.7-5.5-67.3 18zM768.6 384c0 27.1 22.2 49.3 49.3 49.3h156.8c27.1 0 49.3-22.2 49.3-49.3 0-27.1-22.2-49.3-49.3-49.3H817.9c-27.1 0-49.3 22.2-49.3 49.3z"  horiz-adv-x="1024" />

    
    <glyph glyph-name="shoucang-" unicode="&#59004;" d="M778.9-128c-13.1 0-25.7 3.3-37.6 9.8L535.8-5c-7.1 3.9-15.4 6-23.8 6-8.3 0-16.6-2.1-23.8-6l-204.9-112.6c-11.7-6.3-24.2-9.5-37.3-9.5-23.3 0-45.4 10.3-60.8 28.2-16.1 18.8-23.1 44-19.1 68.9l39.3 238.6c3 17.8-2.6 36.1-15 49.1L24.2 425.8C1.8 448.5-5.7 481.7 4.5 512.3c9.9 30 33.9 50.6 64.2 55.2L298 602.3c17.1 2.7 31.7 13.6 38.9 29.3L439.6 848.8C453.3 877.9 481.2 896 512.2 896c30.9 0 58.5-17.9 72.2-46.6l102.8-217c7.3-15.9 21.9-26.9 39-29.6L955.4 568c30.3-4.6 54.3-25.2 64.2-55.2 10.2-30.6 2.6-63.8-19.7-86.5L834.1 256.9c-12.4-12.9-17.9-31.1-14.9-48.9l39.3-238.6c4.1-24.7-2.6-49.7-18.5-68.6-15.7-18.3-38-28.8-61.1-28.8zM512 59c17.8 0 35.5-4.4 51.1-12.7l0.6-0.2 205.8-113.3c3.3-1.8 6.3-2.6 9.5-2.6 6.1 0 12.2 3 16.8 8.3 4.8 5.8 6.8 13.6 5.5 21.4V-39.5L762 198.6c-6.1 35.8 5.3 72.7 30.4 98.8l166 169.6c7 7.2 9.3 17.5 6 27.5l-0.2 0.6v0.2c-3.1 8.9-9 14.1-17.5 15.4l-229 34.7h-0.3c-36.3 5.6-67.2 28.9-82.8 62.4L531.8 824.5c-4 8.4-11.3 13.4-19.6 13.4-8.4 0-15.9-5.2-20-14L389.4 607.2c-15.3-33.3-46.2-56.6-82.6-62.2H306.2l-229-34.7c-8.2-1.2-14.5-6.7-17.5-15.6l-0.1-0.5c-3.3-10.1-1.1-20.4 5.9-27.6l166.6-168.7c25.2-26.2 36.6-63.2 30.5-99l-39.3-238.2c-1.2-8.1 1-16.1 6-22 4.2-4.9 10.4-7.8 16.6-7.8 3.2 0 6.4 0.8 9.4 2.4L460.2 46l0.5 0.3C476.3 54.6 494 59 512 59z"  horiz-adv-x="1024" />

    
    </font>
</defs>
</svg>
